<?xml version="1.0" encoding="UTF-8"?>
<!--Generator: Apple Native CoreSVG 129-->
<!DOCTYPE svg
PUBLIC "-//W3C//DTD SVG 1.1//EN"
       "http://www.w3.org/Graphics/SVG/1.1/DTD/svg11.dtd">
<svg version="1.1" xmlns="http://www.w3.org/2000/svg" xmlns:xlink="http://www.w3.org/1999/xlink" width="3300" height="2200">
 <!--glyph: "uni1004D1.medium", point size: 100.000000, font version: "Version 16.0d9e1", template writer version: "8"-->
 <g id="Notes">
  <rect height="2200" id="artboard" style="fill:white;opacity:1" width="3300" x="0" y="0"/>
  <line id="" style="fill:none;stroke:black;opacity:1;stroke-width:0.5;" x1="263" x2="3036" y1="292" y2="292"/>
  <text style="stroke:none;fill:black;font-family:-apple-system,&quot;SF Pro Display&quot;,&quot;SF Pro Text&quot;,Helvetica,sans-serif;font-weight:bold;" transform="matrix(1 0 0 1 263 322)">Weight/Scale Variations</text>
  <text style="stroke:none;fill:black;font-family:-apple-system,&quot;SF Pro Display&quot;,&quot;SF Pro Text&quot;,Helvetica,sans-serif;text-anchor:middle;" transform="matrix(1 0 0 1 559.711 322)">Ultralight</text>
  <text style="stroke:none;fill:black;font-family:-apple-system,&quot;SF Pro Display&quot;,&quot;SF Pro Text&quot;,Helvetica,sans-serif;text-anchor:middle;" transform="matrix(1 0 0 1 856.422 322)">Thin</text>
  <text style="stroke:none;fill:black;font-family:-apple-system,&quot;SF Pro Display&quot;,&quot;SF Pro Text&quot;,Helvetica,sans-serif;text-anchor:middle;" transform="matrix(1 0 0 1 1153.13 322)">Light</text>
  <text style="stroke:none;fill:black;font-family:-apple-system,&quot;SF Pro Display&quot;,&quot;SF Pro Text&quot;,Helvetica,sans-serif;text-anchor:middle;" transform="matrix(1 0 0 1 1449.84 322)">Regular</text>
  <text style="stroke:none;fill:black;font-family:-apple-system,&quot;SF Pro Display&quot;,&quot;SF Pro Text&quot;,Helvetica,sans-serif;text-anchor:middle;" transform="matrix(1 0 0 1 1746.56 322)">Medium</text>
  <text style="stroke:none;fill:black;font-family:-apple-system,&quot;SF Pro Display&quot;,&quot;SF Pro Text&quot;,Helvetica,sans-serif;text-anchor:middle;" transform="matrix(1 0 0 1 2043.27 322)">Semibold</text>
  <text style="stroke:none;fill:black;font-family:-apple-system,&quot;SF Pro Display&quot;,&quot;SF Pro Text&quot;,Helvetica,sans-serif;text-anchor:middle;" transform="matrix(1 0 0 1 2339.98 322)">Bold</text>
  <text style="stroke:none;fill:black;font-family:-apple-system,&quot;SF Pro Display&quot;,&quot;SF Pro Text&quot;,Helvetica,sans-serif;text-anchor:middle;" transform="matrix(1 0 0 1 2636.69 322)">Heavy</text>
  <text style="stroke:none;fill:black;font-family:-apple-system,&quot;SF Pro Display&quot;,&quot;SF Pro Text&quot;,Helvetica,sans-serif;text-anchor:middle;" transform="matrix(1 0 0 1 2933.4 322)">Black</text>
  <line id="" style="fill:none;stroke:black;opacity:1;stroke-width:0.5;" x1="263" x2="3036" y1="1903" y2="1903"/>
  <g id="" transform="matrix(1 0 0 1 263 1933)">
   <path d="M 9.24805 0.830078 C 13.5547 0.830078 17.1387 -2.74414 17.1387 -7.05078 C 17.1387 -11.3574 13.5449 -14.9316 9.23828 -14.9316 C 4.94141 -14.9316 1.36719 -11.3574 1.36719 -7.05078 C 1.36719 -2.74414 4.95117 0.830078 9.24805 0.830078 Z M 9.24805 -0.654297 C 5.70312 -0.654297 2.87109 -3.49609 2.87109 -7.05078 C 2.87109 -10.6055 5.69336 -13.4473 9.23828 -13.4473 C 12.793 -13.4473 15.6348 -10.6055 15.6445 -7.05078 C 15.6543 -3.49609 12.8027 -0.654297 9.24805 -0.654297 Z M 9.22852 -3.62305 C 9.69727 -3.62305 9.9707 -3.93555 9.9707 -4.45312 L 9.9707 -6.31836 L 12.002 -6.31836 C 12.5 -6.31836 12.832 -6.57227 12.832 -7.04102 C 12.832 -7.51953 12.5195 -7.7832 12.002 -7.7832 L 9.9707 -7.7832 L 9.9707 -9.81445 C 9.9707 -10.332 9.69727 -10.6543 9.22852 -10.6543 C 8.75977 -10.6543 8.50586 -10.3125 8.50586 -9.81445 L 8.50586 -7.7832 L 6.49414 -7.7832 C 5.97656 -7.7832 5.64453 -7.51953 5.64453 -7.04102 C 5.64453 -6.57227 5.99609 -6.31836 6.49414 -6.31836 L 8.50586 -6.31836 L 8.50586 -4.45312 C 8.50586 -3.95508 8.75977 -3.62305 9.22852 -3.62305 Z"/>
  </g>
  <g id="" transform="matrix(1 0 0 1 281.506 1933)">
   <path d="M 11.709 2.91016 C 17.1582 2.91016 21.6699 -1.61133 21.6699 -7.05078 C 21.6699 -12.5 17.1484 -17.0117 11.6992 -17.0117 C 6.25977 -17.0117 1.74805 -12.5 1.74805 -7.05078 C 1.74805 -1.61133 6.26953 2.91016 11.709 2.91016 Z M 11.709 1.25 C 7.09961 1.25 3.41797 -2.44141 3.41797 -7.05078 C 3.41797 -11.6602 7.08984 -15.3516 11.6992 -15.3516 C 16.3086 -15.3516 20 -11.6602 20.0098 -7.05078 C 20.0195 -2.44141 16.3184 1.25 11.709 1.25 Z M 11.6797 -2.66602 C 12.207 -2.66602 12.5098 -3.01758 12.5098 -3.59375 L 12.5098 -6.23047 L 15.3223 -6.23047 C 15.8691 -6.23047 16.25 -6.51367 16.25 -7.03125 C 16.25 -7.55859 15.8887 -7.86133 15.3223 -7.86133 L 12.5098 -7.86133 L 12.5098 -10.6836 C 12.5098 -11.25 12.207 -11.6113 11.6797 -11.6113 C 11.1621 -11.6113 10.8789 -11.2305 10.8789 -10.6836 L 10.8789 -7.86133 L 8.07617 -7.86133 C 7.50977 -7.86133 7.13867 -7.55859 7.13867 -7.03125 C 7.13867 -6.51367 7.5293 -6.23047 8.07617 -6.23047 L 10.8789 -6.23047 L 10.8789 -3.59375 C 10.8789 -3.03711 11.1621 -2.66602 11.6797 -2.66602 Z"/>
  </g>
  <g id="" transform="matrix(1 0 0 1 304.924 1933)">
   <path d="M 14.9707 5.66406 C 21.9336 5.66406 27.6953 -0.0976562 27.6953 -7.05078 C 27.6953 -14.0137 21.9238 -19.7754 14.9609 -19.7754 C 8.00781 -19.7754 2.25586 -14.0137 2.25586 -7.05078 C 2.25586 -0.0976562 8.01758 5.66406 14.9707 5.66406 Z M 14.9707 3.84766 C 8.93555 3.84766 4.08203 -1.01562 4.08203 -7.05078 C 4.08203 -13.0957 8.92578 -17.9492 14.9609 -17.9492 C 21.0059 -17.9492 25.8594 -13.0957 25.8691 -7.05078 C 25.8789 -1.01562 21.0156 3.84766 14.9707 3.84766 Z M 14.9414 -1.38672 C 15.5176 -1.38672 15.8594 -1.77734 15.8594 -2.38281 L 15.8594 -6.13281 L 19.7754 -6.13281 C 20.3711 -6.13281 20.7812 -6.46484 20.7812 -7.02148 C 20.7812 -7.59766 20.3906 -7.93945 19.7754 -7.93945 L 15.8594 -7.93945 L 15.8594 -11.8652 C 15.8594 -12.4805 15.5176 -12.8711 14.9414 -12.8711 C 14.375 -12.8711 14.0527 -12.4609 14.0527 -11.8652 L 14.0527 -7.93945 L 10.1465 -7.93945 C 9.53125 -7.93945 9.13086 -7.59766 9.13086 -7.02148 C 9.13086 -6.46484 9.55078 -6.13281 10.1465 -6.13281 L 14.0527 -6.13281 L 14.0527 -2.38281 C 14.0527 -1.79688 14.375 -1.38672 14.9414 -1.38672 Z"/>
  </g>
  <text style="stroke:none;fill:black;font-family:-apple-system,&quot;SF Pro Display&quot;,&quot;SF Pro Text&quot;,Helvetica,sans-serif;font-weight:bold;" transform="matrix(1 0 0 1 263 1953)">Design Variations</text>
  <text style="stroke:none;fill:black;font-family:-apple-system,&quot;SF Pro Display&quot;,&quot;SF Pro Text&quot;,Helvetica,sans-serif;" transform="matrix(1 0 0 1 263 1971)">Symbols are supported in up to nine weights and three scales.</text>
  <text style="stroke:none;fill:black;font-family:-apple-system,&quot;SF Pro Display&quot;,&quot;SF Pro Text&quot;,Helvetica,sans-serif;" transform="matrix(1 0 0 1 263 1989)">For optimal layout with text and other symbols, vertically align</text>
  <text style="stroke:none;fill:black;font-family:-apple-system,&quot;SF Pro Display&quot;,&quot;SF Pro Text&quot;,Helvetica,sans-serif;" transform="matrix(1 0 0 1 263 2007)">symbols with the adjacent text.</text>
  <line id="" style="fill:none;stroke:#00AEEF;stroke-width:0.5;opacity:1.0;" x1="776" x2="776" y1="1919" y2="1933"/>
  <g id="" transform="matrix(1 0 0 1 776 1933)">
   <path d="M 3.31055 0.126953 C 3.82812 0.126953 4.08203 -0.0683594 4.26758 -0.605469 L 5.52734 -4.0625 L 11.2891 -4.0625 L 12.5488 -0.605469 C 12.7344 -0.0683594 12.9883 0.126953 13.4961 0.126953 C 14.0137 0.126953 14.3457 -0.185547 14.3457 -0.673828 C 14.3457 -0.839844 14.3164 -0.986328 14.2383 -1.20117 L 9.6582 -13.3887 C 9.43359 -13.9941 9.0332 -14.2871 8.4082 -14.2871 C 7.80273 -14.2871 7.39258 -13.9941 7.17773 -13.3984 L 2.59766 -1.19141 C 2.51953 -0.976562 2.49023 -0.830078 2.49023 -0.664062 C 2.49023 -0.175781 2.80273 0.126953 3.31055 0.126953 Z M 6.00586 -5.53711 L 8.37891 -12.1094 L 8.42773 -12.1094 L 10.8008 -5.53711 Z"/>
  </g>
  <line id="" style="fill:none;stroke:#00AEEF;stroke-width:0.5;opacity:1.0;" x1="792.836" x2="792.836" y1="1919" y2="1933"/>
  <text style="stroke:none;fill:black;font-family:-apple-system,&quot;SF Pro Display&quot;,&quot;SF Pro Text&quot;,Helvetica,sans-serif;font-weight:bold;" transform="matrix(1 0 0 1 776 1953)">Margins</text>
  <text style="stroke:none;fill:black;font-family:-apple-system,&quot;SF Pro Display&quot;,&quot;SF Pro Text&quot;,Helvetica,sans-serif;" transform="matrix(1 0 0 1 776 1971)">Leading and trailing margins on the left and right side of each symbol</text>
  <text style="stroke:none;fill:black;font-family:-apple-system,&quot;SF Pro Display&quot;,&quot;SF Pro Text&quot;,Helvetica,sans-serif;" transform="matrix(1 0 0 1 776 1989)">can be adjusted by modifying the x-location of the margin guidelines.</text>
  <text style="stroke:none;fill:black;font-family:-apple-system,&quot;SF Pro Display&quot;,&quot;SF Pro Text&quot;,Helvetica,sans-serif;" transform="matrix(1 0 0 1 776 2007)">Modifications are automatically applied proportionally to all</text>
  <text style="stroke:none;fill:black;font-family:-apple-system,&quot;SF Pro Display&quot;,&quot;SF Pro Text&quot;,Helvetica,sans-serif;" transform="matrix(1 0 0 1 776 2025)">scales and weights.</text>
  <g id="" transform="matrix(1 0 0 1 1289 1933)">
   <path d="M 2.8418 1.86523 L 4.54102 3.57422 C 5.40039 4.44336 6.38672 4.38477 7.31445 3.35938 L 17.4902 -7.85156 C 17.7539 -7.76367 18.0273 -7.7832 18.3398 -7.8418 L 19.4043 -8.03711 L 20.0684 -7.36328 L 20.0293 -6.80664 C 19.9902 -6.30859 20.1172 -5.92773 20.6055 -5.44922 L 21.3672 -4.70703 C 21.8457 -4.22852 22.4609 -4.19922 22.9297 -4.66797 L 25.8398 -7.58789 C 26.3086 -8.05664 26.2891 -8.65234 25.8105 -9.13086 L 25.0391 -9.89258 C 24.5605 -10.3711 24.1895 -10.5273 23.7109 -10.4883 L 23.1348 -10.4395 L 22.4902 -11.0742 L 22.7344 -12.1973 C 22.8613 -12.7637 22.7051 -13.2031 22.1191 -13.7891 L 19.9219 -15.9766 C 16.582 -19.2969 12.1484 -19.2188 9.25781 -16.3281 C 8.83789 -15.918 8.80859 -15.3418 9.04297 -14.9512 C 9.27734 -14.5898 9.73633 -14.3555 10.3809 -14.5215 C 11.8457 -14.8633 13.3691 -14.9219 14.7949 -13.9844 L 14.209 -12.5293 C 14.0137 -12.0508 13.9844 -11.6504 14.1113 -11.2891 L 3.04688 -0.898438 C 2.06055 0.0195312 1.98242 0.996094 2.8418 1.86523 Z M 10.752 -15.957 C 13.1836 -17.7344 16.4746 -17.4316 18.7012 -15.2051 L 21.1328 -12.793 C 21.3672 -12.5586 21.4062 -12.373 21.3379 -12.0312 L 21.0156 -10.5469 L 22.5195 -9.0625 L 23.5059 -9.12109 C 23.7598 -9.13086 23.8379 -9.11133 24.0332 -8.91602 L 24.6094 -8.33984 L 22.168 -5.89844 L 21.5918 -6.47461 C 21.3965 -6.66992 21.3672 -6.74805 21.377 -7.01172 L 21.4453 -7.98828 L 19.9512 -9.47266 L 18.4277 -9.21875 C 18.1055 -9.15039 17.959 -9.17969 17.7148 -9.41406 L 15.7129 -11.416 C 15.459 -11.6504 15.4297 -11.8164 15.5859 -12.1875 L 16.4648 -14.2773 C 14.9023 -15.7324 12.8711 -16.3574 10.8398 -15.7617 C 10.6836 -15.7227 10.625 -15.8496 10.752 -15.957 Z M 5.27344 2.30469 L 4.10156 1.14258 C 3.63281 0.683594 3.74023 0.341797 4.14062 -0.0195312 L 14.9512 -10.1953 L 16.416 -8.71094 L 6.42578 2.27539 C 6.07422 2.67578 5.74219 2.77344 5.27344 2.30469 Z"/>
  </g>
  <text style="stroke:none;fill:black;font-family:-apple-system,&quot;SF Pro Display&quot;,&quot;SF Pro Text&quot;,Helvetica,sans-serif;font-weight:bold;" transform="matrix(1 0 0 1 1289 1953)">Exporting</text>
  <text style="stroke:none;fill:black;font-family:-apple-system,&quot;SF Pro Display&quot;,&quot;SF Pro Text&quot;,Helvetica,sans-serif;" transform="matrix(1 0 0 1 1289 1971)">Symbols should be outlined when exporting to ensure the</text>
  <text style="stroke:none;fill:black;font-family:-apple-system,&quot;SF Pro Display&quot;,&quot;SF Pro Text&quot;,Helvetica,sans-serif;" transform="matrix(1 0 0 1 1289 1989)">design is preserved when submitting to Xcode.</text>
  <text id="template-version" style="stroke:none;fill:black;font-family:-apple-system,&quot;SF Pro Display&quot;,&quot;SF Pro Text&quot;,Helvetica,sans-serif;text-anchor:end;" transform="matrix(1 0 0 1 3036 1933)">Template v.2.0</text>
  <text style="stroke:none;fill:black;font-family:-apple-system,&quot;SF Pro Display&quot;,&quot;SF Pro Text&quot;,Helvetica,sans-serif;text-anchor:end;" transform="matrix(1 0 0 1 3036 1951)">Requires Xcode 12 or greater</text>
  <text style="stroke:none;fill:black;font-family:-apple-system,&quot;SF Pro Display&quot;,&quot;SF Pro Text&quot;,Helvetica,sans-serif;text-anchor:end;" transform="matrix(1 0 0 1 3036 1969)">Generated from tortoise.fill</text>
  <text style="stroke:none;fill:black;font-family:-apple-system,&quot;SF Pro Display&quot;,&quot;SF Pro Text&quot;,Helvetica,sans-serif;text-anchor:end;" transform="matrix(1 0 0 1 3036 1987)">Typeset at 100 points</text>
  <text style="stroke:none;fill:black;font-family:-apple-system,&quot;SF Pro Display&quot;,&quot;SF Pro Text&quot;,Helvetica,sans-serif;" transform="matrix(1 0 0 1 263 726)">Small</text>
  <text style="stroke:none;fill:black;font-family:-apple-system,&quot;SF Pro Display&quot;,&quot;SF Pro Text&quot;,Helvetica,sans-serif;" transform="matrix(1 0 0 1 263 1156)">Medium</text>
  <text style="stroke:none;fill:black;font-family:-apple-system,&quot;SF Pro Display&quot;,&quot;SF Pro Text&quot;,Helvetica,sans-serif;" transform="matrix(1 0 0 1 263 1586)">Large</text>
 </g>
 <g id="Guides">
  <g id="H-reference" style="fill:#27AAE1;stroke:none;" transform="matrix(1 0 0 1 339 696)">
   <path d="M 0.976562 0 L 3.66211 0 L 12.9883 -24.4629 L 45.7031 -24.4629 L 55.0781 0 L 57.7148 0 L 30.6152 -70.459 L 28.125 -70.459 Z M 29.2969 -67.1387 L 29.3945 -67.1387 L 44.873 -26.709 L 13.8672 -26.709 Z"/>
  </g>
  <line id="Baseline-S" style="fill:none;stroke:#27AAE1;opacity:1;stroke-width:0.5;" x1="263" x2="3036" y1="696" y2="696"/>
  <line id="Capline-S" style="fill:none;stroke:#27AAE1;opacity:1;stroke-width:0.5;" x1="263" x2="3036" y1="625.541" y2="625.541"/>
  <g id="H-reference" style="fill:#27AAE1;stroke:none;" transform="matrix(1 0 0 1 339 1126)">
   <path d="M 0.976562 0 L 3.66211 0 L 12.9883 -24.4629 L 45.7031 -24.4629 L 55.0781 0 L 57.7148 0 L 30.6152 -70.459 L 28.125 -70.459 Z M 29.2969 -67.1387 L 29.3945 -67.1387 L 44.873 -26.709 L 13.8672 -26.709 Z"/>
  </g>
  <line id="Baseline-M" style="fill:none;stroke:#27AAE1;opacity:1;stroke-width:0.5;" x1="263" x2="3036" y1="1126" y2="1126"/>
  <line id="Capline-M" style="fill:none;stroke:#27AAE1;opacity:1;stroke-width:0.5;" x1="263" x2="3036" y1="1055.54" y2="1055.54"/>
  <g id="H-reference" style="fill:#27AAE1;stroke:none;" transform="matrix(1 0 0 1 339 1556)">
   <path d="M 0.976562 0 L 3.66211 0 L 12.9883 -24.4629 L 45.7031 -24.4629 L 55.0781 0 L 57.7148 0 L 30.6152 -70.459 L 28.125 -70.459 Z M 29.2969 -67.1387 L 29.3945 -67.1387 L 44.873 -26.709 L 13.8672 -26.709 Z"/>
  </g>
  <line id="Baseline-L" style="fill:none;stroke:#27AAE1;opacity:1;stroke-width:0.5;" x1="263" x2="3036" y1="1556" y2="1556"/>
  <line id="Capline-L" style="fill:none;stroke:#27AAE1;opacity:1;stroke-width:0.5;" x1="263" x2="3036" y1="1485.54" y2="1485.54"/>
  <line id="left-margin" style="fill:none;stroke:#00AEEF;stroke-width:0.5;opacity:1.0;" x1="1360.17" x2="1360.17" y1="1030.79" y2="1150.12"/>
  <line id="right-margin" style="fill:none;stroke:#00AEEF;stroke-width:0.5;opacity:1.0;" x1="1539.52" x2="1539.52" y1="1030.79" y2="1150.12"/>
 </g>
 <g id="Symbols">
  <g id="Black-L" transform="matrix(1 0 0 1 2813.53 1556)">
   <path d="M 88.3789 -39.3066 C 105.029 -39.3066 119.824 -46.0938 131.104 -59.1797 C 119.141 -73.1934 106.445 -78.8574 88.8672 -78.9062 C 70.9961 -78.9062 57.0312 -71.6797 46.1914 -58.5938 C 57.2266 -45.8008 72.168 -39.2578 88.3789 -39.3066 Z M 166.553 -3.75977 C 176.318 -7.66602 186.426 -12.9883 198.291 -12.9883 C 217.041 -12.9883 228.467 -19.5801 228.467 -29.8828 C 228.467 -53.3203 216.064 -68.7012 197.461 -68.7012 C 181.689 -68.7012 171.777 -58.2031 167.529 -43.75 C 165.625 -37.0117 161.621 -32.9102 157.129 -30.4199 C 160.4 -22.3633 163.818 -12.8418 166.553 -3.75977 Z M 131.836 5.32227 C 136.572 3.61328 143.164 2.05078 149.023 1.07422 C 152.49 0.683594 156.104 0 158.154 -1.12305 C 154.199 -12.0605 143.945 -40.0879 137.5 -50.5371 C 129.834 -42.1875 120.801 -36.084 111.523 -32.6172 C 112.842 -18.2129 120.41 -3.27148 131.836 5.32227 Z M 199.023 -35.4004 C 195.068 -35.4004 191.846 -38.623 191.846 -42.5781 C 191.846 -46.4844 195.068 -49.707 199.023 -49.707 C 202.93 -49.707 206.104 -46.4844 206.104 -42.5781 C 206.104 -38.623 202.93 -35.4004 199.023 -35.4004 Z M 46.0938 5.76172 C 56.9824 -2.49023 64.6973 -18.1641 66.1621 -32.3242 C 56.7383 -35.6934 47.6562 -41.3086 39.5508 -49.6094 C 36.8164 -45.5078 34.0332 -40.8691 31.3477 -35.6934 C 26.2695 -25.9277 20.8496 -20.8496 16.8945 -16.7969 C 13.1348 -12.9395 11.2793 -10.8398 11.2793 -6.83594 C 11.2793 -1.2207 16.1133 1.95312 24.7559 1.95312 L 31.3965 1.95312 C 36.377 1.95312 41.1133 3.66211 46.0938 5.76172 Z M 88.9648 19.4336 C 103.32 19.4336 114.111 14.2578 122.51 10.0586 C 109.912 0.488281 102.393 -14.0625 101.611 -29.7363 C 97.2168 -28.8574 92.8711 -28.418 88.4766 -28.418 C 84.2773 -28.418 80.127 -28.8086 76.0742 -29.6387 C 75 -14.1602 67.8223 0.439453 56.0059 10.3027 C 64.6484 14.1113 75.1953 19.4336 88.9648 19.4336 Z M 152.393 28.9062 C 162.354 28.9062 168.994 24.8047 168.994 18.2129 C 168.994 12.2559 163.867 10.2051 159.131 8.88672 C 156.396 8.44727 154.004 8.05664 150.977 7.61719 C 141.943 9.47266 128.564 14.8438 121.533 19.0918 C 128.027 25.0488 140.967 28.9062 152.393 28.9062 Z M 29.3945 28.9062 C 40.8203 28.9062 52.0508 25.0488 59.1309 19.6777 C 50.0977 15.1855 39.6484 10.5957 30.4199 7.91016 C 27.0508 8.93555 24.2188 9.52148 20.5078 10.498 C 17.041 11.4258 13.4277 13.8184 13.4277 18.2129 C 13.4277 24.8047 19.8242 28.9062 29.3945 28.9062 Z"/>
  </g>
  <g id="Heavy-L" transform="matrix(1 0 0 1 2517.69 1556)">
   <path d="M 88.1348 -38.4766 C 105.029 -38.4766 119.775 -45.1172 131.104 -57.9102 C 119.336 -72.1191 106.689 -78.2715 88.6719 -78.3203 C 70.5078 -78.3203 56.9336 -71.3379 45.7031 -57.4219 C 56.8848 -44.8242 71.7773 -38.4277 88.1348 -38.4766 Z M 166.455 -4.29688 C 175.781 -7.95898 185.205 -13.7207 197.412 -13.7207 C 215.479 -13.7207 226.709 -20.0195 226.709 -30.0781 C 226.709 -52.8809 214.551 -68.1152 196.387 -68.1152 C 180.859 -68.1152 171.289 -57.8613 167.139 -43.6035 C 164.893 -36.1328 161.035 -31.9336 156.25 -29.2969 C 159.473 -22.1191 163.232 -12.8906 166.455 -4.29688 Z M 130.908 4.49219 C 135.986 2.73438 142.334 1.26953 148.633 0.537109 C 152.539 0.195312 156.543 -0.488281 158.74 -1.70898 C 154.053 -12.207 143.359 -39.6484 136.865 -50.0977 C 129.443 -42.1875 120.215 -36.084 111.377 -32.7148 C 112.695 -18.8477 119.824 -4.58984 130.908 4.49219 Z M 197.949 -35.7422 C 194.189 -35.7422 191.113 -38.8184 191.113 -42.5781 C 191.113 -46.2402 194.189 -49.3164 197.949 -49.3164 C 201.611 -49.3164 204.688 -46.2402 204.688 -42.5781 C 204.688 -38.8184 201.611 -35.7422 197.949 -35.7422 Z M 46.1914 4.83398 C 56.7871 -3.71094 64.3066 -18.8965 65.7715 -32.4707 C 56.543 -35.7422 47.3145 -41.4062 39.6973 -49.2188 C 36.8652 -44.9219 33.9355 -40.1367 31.2012 -34.7656 C 25.9766 -24.7559 20.2148 -19.4336 16.1621 -15.4785 C 12.9395 -12.1582 11.2793 -10.1562 11.2793 -6.5918 C 11.2793 -1.5625 15.8203 1.26953 23.7793 1.26953 L 30.8105 1.26953 C 36.377 1.26953 41.2109 2.83203 46.1914 4.83398 Z M 88.4277 18.5547 C 102.979 18.5547 113.721 12.9395 122.266 8.74023 C 110.303 -0.878906 103.223 -14.9902 102.344 -30.0293 C 97.6562 -29.0039 93.0176 -28.4668 88.2324 -28.4668 C 83.6426 -28.4668 79.1504 -28.9551 74.8047 -29.8828 C 73.6816 -15.2832 66.8457 -1.07422 55.4688 8.93555 C 64.1113 12.6465 74.4629 18.5547 88.4277 18.5547 Z M 150.342 28.3203 C 159.961 28.3203 166.455 24.3164 166.455 17.8223 C 166.455 12.0605 161.475 9.57031 156.445 8.44727 C 153.418 8.00781 150.83 7.66602 147.705 7.22656 C 139.209 8.78906 127.344 13.7207 120.508 17.8223 C 126.709 24.2188 139.16 28.3203 150.342 28.3203 Z M 29.3457 28.2227 C 40.5273 28.2227 51.6602 24.1211 58.3008 18.2129 C 50.0488 13.8672 40.3809 9.57031 31.6895 7.37305 C 28.3691 8.39844 25.3906 8.88672 21.6309 9.81445 C 17.5781 10.8398 13.6719 13.1836 13.6719 17.7246 C 13.6719 24.2676 20.0195 28.2227 29.3457 28.2227 Z"/>
  </g>
  <g id="Bold-L" transform="matrix(1 0 0 1 2221.98 1556)">
   <path d="M 87.8418 -37.5 C 105.078 -37.5488 119.678 -43.9941 131.104 -56.543 C 119.482 -70.8984 106.885 -77.5879 88.4277 -77.6367 C 69.9707 -77.6855 56.8359 -70.9961 45.166 -56.1035 C 56.543 -43.75 71.3379 -37.4512 87.8418 -37.5 Z M 166.357 -4.88281 C 175.195 -8.25195 183.838 -14.5508 196.484 -14.5508 C 213.672 -14.5508 224.707 -20.5078 224.707 -30.3711 C 224.707 -52.3926 212.891 -67.4316 195.166 -67.4316 C 179.932 -67.4316 170.801 -57.4707 166.748 -43.5059 C 164.16 -35.1562 160.4 -30.8105 155.273 -28.0762 C 158.398 -21.875 162.549 -12.9395 166.357 -4.88281 Z M 129.932 3.51562 C 135.352 1.80664 141.406 0.439453 148.145 -0.0976562 C 152.588 -0.292969 157.031 -0.976562 159.375 -2.29492 C 153.857 -12.3047 142.627 -39.1602 136.133 -49.5605 C 129.004 -42.1387 119.58 -36.0352 111.279 -32.8613 C 112.5 -19.5801 119.141 -6.00586 129.932 3.51562 Z M 196.729 -36.084 C 193.213 -36.084 190.283 -38.9648 190.283 -42.5293 C 190.283 -45.9961 193.213 -48.877 196.729 -48.877 C 200.195 -48.877 203.125 -45.9961 203.125 -42.5293 C 203.125 -38.9648 200.195 -36.084 196.729 -36.084 Z M 46.3379 3.80859 C 56.543 -5.07812 63.916 -19.7754 65.332 -32.5684 C 56.2988 -35.8398 46.9238 -41.5039 39.8438 -48.7793 C 36.9141 -44.2871 33.8867 -39.2578 31.0547 -33.7891 C 25.6836 -23.4375 19.4824 -17.8223 15.3809 -13.9648 C 12.6953 -11.2793 11.2793 -9.42383 11.2793 -6.34766 C 11.2793 -1.95312 15.4297 0.537109 22.7051 0.537109 L 30.127 0.537109 C 36.3281 0.537109 41.3574 1.9043 46.3379 3.80859 Z M 87.793 17.5293 C 102.637 17.5293 113.33 11.4258 122.021 7.22656 C 110.791 -2.49023 104.15 -16.0645 103.174 -30.3711 C 98.1934 -29.1504 93.1641 -28.5645 87.9883 -28.5645 C 82.9102 -28.5156 78.0273 -29.1016 73.3398 -30.2246 C 72.168 -16.5527 65.7227 -2.73438 54.8828 7.37305 C 63.4766 11.0352 73.6328 17.5293 87.793 17.5293 Z M 29.2969 27.4414 C 40.2344 27.4414 51.2695 23.0957 57.373 16.5527 C 49.9512 12.4023 41.2109 8.39844 33.1543 6.78711 C 29.834 7.76367 26.6602 8.1543 22.9004 9.08203 C 18.1641 10.1074 14.0137 12.4512 14.0137 17.2363 C 14.0137 23.6328 20.2637 27.4414 29.2969 27.4414 Z M 148.096 27.5879 C 157.275 27.5879 163.672 23.7793 163.672 17.3828 C 163.672 11.8164 158.74 8.88672 153.418 7.91016 C 150.049 7.51953 147.363 7.22656 144.043 6.78711 C 136.182 8.05664 125.977 12.4512 119.434 16.4062 C 125.195 23.2422 137.158 27.5879 148.096 27.5879 Z"/>
  </g>
  <g id="Semibold-L" transform="matrix(1 0 0 1 1925.96 1556)">
   <path d="M 87.6953 -36.8652 C 105.127 -36.9141 119.629 -43.2129 131.104 -55.5664 C 119.629 -70.0684 107.08 -77.1484 88.2812 -77.1973 C 69.5801 -77.1973 56.7383 -70.752 44.7754 -55.2246 C 56.2988 -42.9688 70.9961 -36.8164 87.6953 -36.8652 Z M 166.309 -5.27344 C 174.805 -8.44727 182.91 -15.0879 195.85 -15.0879 C 212.451 -15.0879 223.34 -20.8496 223.34 -30.5176 C 223.34 -52.0996 211.719 -66.9434 194.336 -66.9434 C 179.297 -66.9434 170.459 -57.1777 166.455 -43.4082 C 163.623 -34.4727 159.961 -30.0781 154.59 -27.2461 C 157.715 -21.7285 162.061 -12.9883 166.309 -5.27344 Z M 129.248 2.88086 C 134.912 1.12305 140.771 -0.195312 147.852 -0.488281 C 152.637 -0.634766 157.373 -1.36719 159.863 -2.73438 C 153.711 -12.4023 142.139 -38.8672 135.645 -49.1699 C 128.711 -42.1387 119.141 -36.0352 111.182 -32.959 C 112.402 -20.0684 118.701 -7.03125 129.248 2.88086 Z M 195.898 -36.3281 C 192.529 -36.3281 189.746 -39.1113 189.746 -42.4805 C 189.746 -45.8496 192.529 -48.584 195.898 -48.584 C 199.219 -48.584 202.002 -45.8496 202.002 -42.4805 C 202.002 -39.1113 199.219 -36.3281 195.898 -36.3281 Z M 46.4844 3.07617 C 56.3965 -6.00586 63.623 -20.3125 65.0391 -32.666 C 56.1523 -35.8398 46.6797 -41.6016 39.9414 -48.4863 C 36.9141 -43.8477 33.8379 -38.623 30.9082 -33.1055 C 25.4883 -22.5098 18.9941 -16.748 14.7949 -12.8906 C 12.5 -10.6934 11.2793 -8.88672 11.2793 -6.15234 C 11.2793 -2.19727 15.1855 0 21.9727 0 L 29.6387 0 C 36.3281 0 41.4551 1.26953 46.4844 3.07617 Z M 87.3535 16.8457 C 102.393 16.8457 113.037 10.4004 121.826 6.20117 C 111.084 -3.56445 104.785 -16.7969 103.711 -30.6152 C 98.5352 -29.248 93.2617 -28.5645 87.793 -28.5645 C 82.4219 -28.5645 77.2461 -29.1992 72.3633 -30.4199 C 71.1426 -17.4316 64.9414 -3.90625 54.4922 6.34766 C 63.0371 9.91211 73.0469 16.8457 87.3535 16.8457 Z M 29.248 26.9043 C 39.9902 26.9043 50.9766 22.3633 56.7383 15.3809 C 49.9512 11.377 41.748 7.56836 34.1309 6.34766 C 30.8594 7.37305 27.5879 7.66602 23.7305 8.54492 C 18.5547 9.66797 14.209 11.9629 14.209 16.8457 C 14.209 23.1934 20.459 26.9043 29.248 26.9043 Z M 146.533 27.1484 C 155.42 27.1484 161.719 23.4375 161.719 17.0898 C 161.719 11.6699 156.885 8.44727 151.318 7.56836 C 147.754 7.17773 144.922 6.93359 141.504 6.44531 C 134.131 7.51953 125 11.5723 118.652 15.4297 C 124.17 22.5586 135.742 27.1484 146.533 27.1484 Z"/>
  </g>
  <g id="Medium-L" transform="matrix(1 0 0 1 1629.76 1556)">
   <path d="M 87.5488 -36.377 C 105.127 -36.4258 119.58 -42.6758 131.104 -54.834 C 119.727 -69.4336 107.178 -76.8066 88.1836 -76.8555 C 69.2871 -76.9043 56.6895 -70.5566 44.5312 -54.541 C 56.1035 -42.3828 70.8008 -36.3281 87.5488 -36.377 Z M 166.26 -5.56641 C 174.512 -8.59375 182.178 -15.5273 195.361 -15.5273 C 211.523 -15.5273 222.314 -21.1426 222.314 -30.6641 C 222.314 -51.8066 210.84 -66.6016 193.75 -66.6016 C 178.809 -66.6016 170.215 -56.9824 166.211 -43.3105 C 163.184 -33.9355 159.619 -29.4922 154.102 -26.6113 C 157.178 -21.582 161.719 -12.9883 166.26 -5.56641 Z M 128.711 2.39258 C 134.57 0.634766 140.283 -0.634766 147.607 -0.830078 C 152.686 -0.878906 157.617 -1.61133 160.156 -3.07617 C 153.613 -12.4512 141.797 -38.623 135.303 -48.9258 C 128.467 -42.1387 118.848 -36.0352 111.133 -33.0078 C 112.305 -20.459 118.359 -7.8125 128.711 2.39258 Z M 195.264 -36.4746 C 191.992 -36.4746 189.307 -39.1602 189.307 -42.4805 C 189.307 -45.7031 191.992 -48.3887 195.264 -48.3887 C 198.486 -48.3887 201.172 -45.7031 201.172 -42.4805 C 201.172 -39.1602 198.486 -36.4746 195.264 -36.4746 Z M 46.5332 2.49023 C 56.25 -6.73828 63.3789 -20.752 64.8438 -32.7637 C 56.0547 -35.8887 46.4844 -41.6504 39.9902 -48.2422 C 36.9629 -43.5059 33.7891 -38.1836 30.8594 -32.5684 C 25.293 -21.8262 18.6035 -15.918 14.3555 -12.1094 C 12.4023 -10.2539 11.2793 -8.49609 11.2793 -6.00586 C 11.2793 -2.44141 14.9902 -0.390625 21.4355 -0.390625 L 29.248 -0.390625 C 36.3281 -0.390625 41.5039 0.830078 46.5332 2.49023 Z M 87.0605 16.3086 C 102.197 16.3086 112.793 9.66797 121.68 5.41992 C 111.328 -4.39453 105.225 -17.334 104.15 -30.8105 C 98.8281 -29.3457 93.3594 -28.6133 87.6465 -28.6133 C 82.0312 -28.5645 76.6602 -29.2969 71.6309 -30.5664 C 70.3613 -18.0664 64.3555 -4.78516 54.1992 5.51758 C 62.6953 9.08203 72.6074 16.3086 87.0605 16.3086 Z M 29.1992 26.5137 C 39.8438 26.5137 50.7812 21.7773 56.25 14.502 C 49.9023 10.6445 42.1875 6.98242 34.8633 6.05469 C 31.6406 7.03125 28.2715 7.27539 24.4141 8.10547 C 18.8477 9.27734 14.4043 11.5723 14.4043 16.6016 C 14.4043 22.9004 20.5566 26.5137 29.1992 26.5137 Z M 145.312 26.7578 C 154.004 26.7578 160.254 23.1445 160.254 16.8457 C 160.254 11.5723 155.469 8.05664 149.707 7.27539 C 145.996 6.93359 143.115 6.73828 139.6 6.25 C 132.52 7.12891 124.316 10.9375 118.066 14.6484 C 123.438 22.0703 134.668 26.7578 145.312 26.7578 Z"/>
  </g>
  <g id="Regular-L" transform="matrix(1 0 0 1 1333.73 1556)">
   <path d="M 87.3535 -35.6934 C 105.127 -35.7422 119.482 -41.8945 131.104 -53.8574 C 119.824 -68.6035 107.324 -76.3672 88.0371 -76.416 C 68.8965 -76.4648 56.5918 -70.3125 44.1406 -53.6133 C 55.8105 -41.6504 70.5078 -35.6445 87.3535 -35.6934 Z M 166.162 -5.95703 C 174.121 -8.83789 181.25 -16.0645 194.727 -16.0645 C 210.303 -16.0645 220.947 -21.4844 220.947 -30.8105 C 220.947 -51.5137 209.717 -66.1621 192.92 -66.1621 C 178.174 -66.1621 169.873 -56.7383 165.918 -43.2129 C 162.646 -33.252 159.18 -28.7598 153.418 -25.7812 C 156.445 -21.4355 161.279 -13.0371 166.162 -5.95703 Z M 128.027 1.70898 C 134.131 -0.0488281 139.648 -1.2207 147.266 -1.2207 C 152.734 -1.2207 157.959 -1.95312 160.645 -3.51562 C 153.467 -12.5488 141.309 -38.2812 134.814 -48.5352 C 128.223 -42.1387 118.408 -36.0352 111.035 -33.1055 C 112.207 -20.9473 117.871 -8.78906 128.027 1.70898 Z M 194.434 -36.7188 C 191.309 -36.7188 188.721 -39.3066 188.721 -42.4316 C 188.721 -45.5566 191.309 -48.0957 194.434 -48.0957 C 197.51 -48.0957 200.098 -45.5566 200.098 -42.4316 C 200.098 -39.3066 197.51 -36.7188 194.434 -36.7188 Z M 46.6309 1.80664 C 56.1035 -7.66602 63.0859 -21.3379 64.5508 -32.8125 C 55.9082 -35.9375 46.2402 -41.748 40.0879 -47.9492 C 36.9629 -43.0664 33.7402 -37.5977 30.7129 -31.8848 C 25.0977 -20.9473 18.1152 -14.7949 13.8184 -11.084 C 12.2559 -9.66797 11.2793 -8.00781 11.2793 -5.81055 C 11.2793 -2.68555 14.7461 -0.927734 20.7031 -0.927734 L 28.8086 -0.927734 C 36.3281 -0.927734 41.6016 0.195312 46.6309 1.80664 Z M 86.6211 15.625 C 101.953 15.625 112.549 8.64258 121.533 4.39453 C 111.621 -5.46875 105.859 -18.0176 104.688 -31.0059 C 99.1699 -29.4434 93.457 -28.6621 87.5 -28.6621 C 81.543 -28.6133 75.9277 -29.3945 70.6543 -30.8105 C 69.3359 -18.9453 63.5742 -5.95703 53.8086 4.49219 C 62.3047 7.95898 72.0703 15.625 86.6211 15.625 Z M 29.1504 25.9766 C 39.5996 25.9766 50.4883 21.0938 55.6152 13.3789 C 49.8535 9.61914 42.7734 6.20117 35.8398 5.61523 C 32.666 6.5918 29.1504 6.78711 25.2441 7.61719 C 19.2871 8.78906 14.5996 11.084 14.5996 16.2598 C 14.5996 22.4609 20.752 25.9766 29.1504 25.9766 Z M 143.75 26.3184 C 152.197 26.3184 158.301 22.8027 158.301 16.5527 C 158.301 11.377 153.662 7.61719 147.656 6.93359 C 143.75 6.5918 140.723 6.44531 137.109 5.9082 C 130.469 6.5918 123.389 10.0586 117.285 13.6719 C 122.412 21.3867 133.301 26.3184 143.75 26.3184 Z"/>
  </g>
  <g id="Light-L" transform="matrix(1 0 0 1 1036.46 1556)">
   <path d="M 87.5977 -34.8145 C 106.006 -34.8633 120.215 -41.1133 132.178 -52.3438 C 121.289 -66.9922 108.545 -75.8789 88.623 -75.9277 C 69.043 -75.9766 56.5918 -69.7754 43.8477 -52.0996 C 55.6641 -40.9668 69.873 -34.8145 87.5977 -34.8145 Z M 165.527 -5.95703 C 173.682 -8.74023 183.008 -16.8457 197.168 -16.8457 C 211.523 -16.8457 222.07 -21.9727 222.07 -31.3477 C 222.07 -50.9766 211.084 -65.6738 194.775 -65.6738 C 180.127 -65.6738 172.705 -55.5664 168.506 -43.1641 C 164.453 -32.2754 161.279 -27.3926 153.662 -24.0723 C 156.592 -19.7754 160.938 -12.4023 165.527 -5.95703 Z M 196.582 -36.8652 C 193.457 -36.8652 190.869 -39.4531 190.869 -42.5781 C 190.869 -45.752 193.457 -48.2422 196.582 -48.2422 C 199.658 -48.2422 202.246 -45.752 202.246 -42.5781 C 202.246 -39.4531 199.658 -36.8652 196.582 -36.8652 Z M 128.809 1.85547 C 135.449 -0.390625 141.602 -2.09961 149.512 -2.09961 C 154.15 -2.09961 158.594 -2.53906 160.84 -3.90625 C 153.467 -12.9883 141.65 -37.5488 135.107 -48.1445 C 128.369 -42.0898 119.531 -36.6211 111.963 -33.6426 C 113.281 -20.3125 118.115 -9.57031 128.809 1.85547 Z M 47.168 1.66016 C 56.6406 -8.34961 62.7441 -21.1426 64.502 -33.2031 C 55.6152 -36.2793 46.7773 -41.748 40.625 -47.5098 C 37.207 -42.2363 33.8379 -36.1328 30.5664 -30.2734 C 25.1953 -20.3125 17.7734 -13.2812 13.4766 -9.91211 C 12.1094 -8.74023 11.2793 -7.27539 11.2793 -5.41992 C 11.2793 -3.02734 14.1602 -1.5625 18.8477 -1.5625 L 27.6855 -1.5625 C 35.791 -1.5625 41.6504 -0.195312 47.168 1.66016 Z M 86.1328 14.5996 C 102.686 14.5996 113.818 8.39844 123.438 4.10156 C 113.184 -6.68945 108.008 -18.0664 106.592 -31.8848 C 100.635 -30.0781 94.3848 -29.1992 87.6953 -29.1992 C 81.1035 -29.1504 75.0488 -30.0293 69.4824 -31.543 C 67.8711 -19.3359 62.8418 -7.66602 52.7832 3.85742 C 61.7676 7.76367 71.3867 14.5996 86.1328 14.5996 Z M 29.4434 24.5117 C 39.2578 24.5117 49.7559 19.4336 54.5898 11.377 C 49.4141 8.05664 43.2617 5.12695 37.0117 4.24805 C 34.082 5.37109 30.8105 5.56641 26.9043 6.44531 C 20.1172 7.91016 15.7715 10.3027 15.7715 15.332 C 15.7715 21.0938 21.2891 24.5117 29.4434 24.5117 Z M 144.922 25 C 153.076 25 158.594 21.582 158.594 15.8691 C 158.594 10.791 154.248 7.42188 147.461 6.34766 C 143.506 5.81055 140.479 5.51758 137.354 4.73633 C 131.592 5.85938 125.439 8.74023 119.775 11.8652 C 124.609 19.9219 135.107 25 144.922 25 Z"/>
  </g>
  <g id="Thin-L" transform="matrix(1 0 0 1 739.015 1556)">
   <path d="M 87.9883 -33.6426 C 107.178 -33.6426 121.143 -40.0391 133.545 -50.3418 C 123.291 -64.9414 110.156 -75.293 89.4043 -75.3418 C 69.2383 -75.3418 56.543 -69.0918 43.457 -50.0977 C 55.4688 -40.0391 69.0918 -33.6426 87.9883 -33.6426 Z M 164.648 -5.9082 C 173.096 -8.59375 185.352 -17.8711 200.391 -17.8711 C 213.184 -17.8711 223.535 -22.6074 223.535 -32.0801 C 223.535 -50.2441 212.891 -65.0391 197.217 -65.0391 C 182.764 -65.0391 176.514 -54.0039 171.924 -43.0176 C 166.846 -31.0059 164.014 -25.5371 153.955 -21.875 C 156.787 -17.5781 160.498 -11.5234 164.648 -5.9082 Z M 199.414 -37.0605 C 196.289 -37.0605 193.701 -39.6484 193.701 -42.7734 C 193.701 -45.9961 196.289 -48.4863 199.414 -48.4863 C 202.49 -48.4863 205.078 -45.9961 205.078 -42.7734 C 205.078 -39.6484 202.49 -37.0605 199.414 -37.0605 Z M 129.883 2.05078 C 137.256 -0.830078 144.189 -3.22266 152.49 -3.22266 C 156.006 -3.22266 159.424 -3.32031 161.182 -4.49219 C 153.467 -13.5742 142.09 -36.6211 135.498 -47.5586 C 128.613 -42.041 121.045 -37.4023 113.184 -34.375 C 114.648 -19.4824 118.408 -10.5469 129.883 2.05078 Z M 47.8516 1.46484 C 57.3242 -9.27734 62.2559 -20.8496 64.4531 -33.6914 C 55.2246 -36.7676 47.5098 -41.7969 41.2598 -46.9727 C 37.5488 -41.1621 33.9844 -34.2285 30.3711 -28.125 C 25.3906 -19.4824 17.334 -11.1816 13.0859 -8.34961 C 11.9141 -7.51953 11.2793 -6.34766 11.2793 -4.93164 C 11.2793 -3.51562 13.3301 -2.49023 16.3574 -2.49023 L 26.2207 -2.49023 C 35.0586 -2.49023 41.748 -0.732422 47.8516 1.46484 Z M 85.498 13.1836 C 103.613 13.1836 115.527 8.05664 125.928 3.66211 C 115.283 -8.34961 110.889 -18.1152 109.131 -33.0566 C 102.588 -30.957 95.5566 -29.8828 87.9883 -29.8828 C 80.5176 -29.834 73.9258 -30.8594 67.9688 -32.5195 C 65.918 -19.873 61.8652 -9.96094 51.5137 3.07617 C 61.084 7.51953 70.459 13.1836 85.498 13.1836 Z M 29.834 22.5098 C 38.7695 22.5098 48.6816 17.2363 53.2227 8.69141 C 48.8281 5.95703 43.8965 3.75977 38.5254 2.44141 C 35.9375 3.71094 33.0566 3.90625 29.0527 4.93164 C 21.1914 6.68945 17.2852 9.22852 17.2852 14.1602 C 17.2852 19.2383 22.0215 22.5098 29.834 22.5098 Z M 146.387 23.2422 C 154.199 23.2422 158.936 20.0195 158.936 14.9414 C 158.936 9.96094 155.029 7.17773 147.168 5.56641 C 143.164 4.73633 140.186 4.3457 137.695 3.17383 C 133.057 4.83398 128.125 7.03125 122.998 9.42383 C 127.539 18.0176 137.451 23.2422 146.387 23.2422 Z"/>
  </g>
  <g id="Ultralight-L" transform="matrix(1 0 0 1 441.938 1556)">
   <path d="M 88.1836 -33.0566 C 107.764 -33.0566 121.582 -39.502 134.277 -49.3164 C 124.268 -63.8672 110.986 -75 89.7949 -75 C 69.2871 -75 56.543 -68.7012 43.2617 -49.0723 C 55.3711 -39.5508 68.6523 -33.0566 88.1836 -33.0566 Z M 164.16 -5.9082 C 172.754 -8.54492 186.523 -18.4082 202.051 -18.4082 C 214.014 -18.4082 224.268 -22.9492 224.268 -32.4707 C 224.268 -49.9023 213.818 -64.6973 198.438 -64.6973 C 184.082 -64.6973 178.467 -53.2227 173.682 -42.9688 C 168.018 -30.3711 165.381 -24.6094 154.102 -20.7031 C 156.885 -16.4551 160.254 -11.084 164.16 -5.9082 Z M 200.879 -37.1582 C 197.754 -37.1582 195.166 -39.7461 195.166 -42.8711 C 195.166 -46.0938 197.754 -48.584 200.879 -48.584 C 203.955 -48.584 206.494 -46.0938 206.494 -42.8711 C 206.494 -39.7461 203.955 -37.1582 200.879 -37.1582 Z M 130.42 2.19727 C 138.135 -1.02539 145.508 -3.75977 154.053 -3.75977 C 156.982 -3.75977 159.863 -3.71094 161.328 -4.78516 C 153.467 -13.8672 142.334 -36.1816 135.693 -47.2656 C 128.76 -41.9922 121.826 -37.793 113.818 -34.7168 C 115.381 -19.043 118.555 -11.084 130.42 2.19727 Z M 48.1934 1.36719 C 57.7148 -9.76562 61.9629 -20.752 64.4043 -33.9355 C 55.0293 -37.0117 47.9004 -41.7969 41.6016 -46.7285 C 37.7441 -40.625 34.082 -33.252 30.2734 -27.002 C 25.4883 -19.043 17.1387 -10.1562 12.8418 -7.51953 C 11.8164 -6.88477 11.2793 -5.85938 11.2793 -4.6875 C 11.2793 -3.80859 12.9395 -2.92969 15.0879 -2.92969 L 25.4883 -2.92969 C 34.668 -2.92969 41.7969 -0.976562 48.1934 1.36719 Z M 85.2051 12.5 C 104.053 12.5 116.406 7.91016 127.246 3.4668 C 116.357 -9.22852 112.354 -18.1641 110.4 -33.6426 C 103.613 -31.3965 96.1914 -30.2246 88.1348 -30.2246 C 80.2246 -30.2246 73.3398 -31.2988 67.1875 -33.0078 C 64.9414 -20.1172 61.377 -11.1328 50.8301 2.63672 C 60.7422 7.37305 70.0195 12.5 85.2051 12.5 Z M 30.0293 21.4844 C 38.5254 21.4844 48.1934 16.1621 52.5391 7.32422 C 48.5352 4.93164 44.2383 3.07617 39.3066 1.51367 C 36.9141 2.83203 34.1797 3.07617 30.127 4.15039 C 21.7773 6.10352 18.1152 8.69141 18.1152 13.5742 C 18.1152 18.3105 22.4121 21.4844 30.0293 21.4844 Z M 147.168 22.3633 C 154.785 22.3633 159.082 19.1895 159.082 14.4531 C 159.082 9.57031 155.42 7.03125 147.021 5.12695 C 143.018 4.19922 140.039 3.75977 137.842 2.39258 C 133.789 4.29688 129.541 6.10352 124.658 8.20312 C 129.004 16.9922 138.672 22.3633 147.168 22.3633 Z"/>
  </g>
  <g id="Black-M" transform="matrix(1 0 0 1 2838.99 1126)">
   <path d="M 68.9941 -39.0625 C 81.8359 -39.0625 93.3594 -44.5801 102.148 -54.6387 C 92.9199 -65.2832 82.8613 -69.5801 69.4336 -69.6289 C 55.7129 -69.5801 44.3359 -63.623 36.2793 -54.1016 C 44.7266 -44.3848 56.1035 -39.0625 68.9941 -39.0625 Z M 128.809 -10.1562 C 137.109 -13.4766 147.07 -17.4316 156.104 -17.4316 C 170.996 -17.4316 180.078 -22.7539 180.078 -31.1035 C 180.078 -49.5605 170.215 -61.7188 155.469 -61.7188 C 142.969 -61.7188 135.254 -52.8809 131.738 -41.9434 C 130.225 -37.3047 127.1 -33.9844 123.096 -32.0801 C 125.635 -24.6582 127.588 -17.4805 128.809 -10.1562 Z M 103.809 -2.58789 C 107.324 -4.15039 113.135 -5.71289 117.285 -6.83594 C 118.848 -7.27539 120.703 -7.61719 121.924 -8.30078 C 119.775 -17.3828 112.598 -39.209 107.568 -47.5098 C 101.221 -40.625 94.9707 -36.2305 87.0605 -33.3496 C 88.1836 -20.8496 94.2871 -9.08203 103.809 -2.58789 Z M 156.836 -35.0586 C 153.516 -35.0586 150.83 -37.7441 150.83 -41.0645 C 150.83 -44.3359 153.516 -47.0215 156.836 -47.0215 C 160.107 -47.0215 162.793 -44.3359 162.793 -41.0645 C 162.793 -37.7441 160.107 -35.0586 156.836 -35.0586 Z M 35.791 -2.24609 C 44.7266 -8.59375 50.4395 -20.8984 51.8066 -33.0078 C 44.0918 -35.6934 37.6465 -39.7949 30.7617 -46.6797 C 28.6133 -43.5059 26.5137 -39.8926 24.4141 -35.8887 C 20.8008 -29.248 16.8457 -25.1953 13.916 -22.168 C 10.4004 -18.457 8.74023 -16.8457 8.74023 -13.3301 C 8.74023 -8.64258 12.5977 -5.85938 19.4824 -5.85938 L 24.6094 -5.85938 C 27.9297 -5.85938 31.7383 -4.19922 35.791 -2.24609 Z M 69.4336 7.8125 C 80.8594 7.8125 89.5996 4.78516 96.2891 1.51367 C 85.498 -6.29883 79.4434 -17.5781 78.8086 -31.0059 C 75.4883 -30.4688 72.2656 -30.1758 68.9941 -30.1758 C 65.9668 -30.1758 62.9883 -30.4199 60.0586 -30.9082 C 59.1309 -17.5781 53.5156 -6.49414 43.6035 1.5625 C 50.5859 4.83398 58.8867 7.8125 69.4336 7.8125 Z M 121.436 14.5996 C 129.492 14.5996 134.473 11.2793 134.473 6.29883 C 134.473 1.51367 130.566 0.683594 126.904 -0.683594 C 125.098 -1.2207 123.438 -1.66016 121.533 -2.09961 C 114.209 -0.0488281 102.393 4.39453 96.8262 7.61719 C 102.148 11.8652 112.646 14.5996 121.436 14.5996 Z M 23.0469 14.5996 C 31.8359 14.5996 40.4297 11.8652 46.3867 8.25195 C 38.623 4.78516 29.9805 1.12305 22.5098 -1.80664 C 19.9219 -0.927734 18.1152 -0.341797 15.2344 0.537109 C 12.9395 1.26953 10.6445 3.22266 10.6445 6.29883 C 10.6445 11.2793 15.332 14.5996 23.0469 14.5996 Z"/>
  </g>
  <g id="Heavy-M" transform="matrix(1 0 0 1 2543.4 1126)">
   <path d="M 68.6523 -38.3789 C 81.6406 -38.3789 93.0664 -43.7012 101.855 -53.6621 C 92.7246 -64.502 82.7637 -69.043 69.043 -69.0918 C 55.1758 -69.0918 44.2383 -63.4277 35.8398 -53.2227 C 44.3848 -43.5059 55.8594 -38.3301 68.6523 -38.3789 Z M 128.906 -10.7422 C 136.67 -13.7695 145.264 -18.0176 154.541 -18.0176 C 168.945 -18.0176 177.832 -23.1445 177.832 -31.2012 C 177.832 -49.2188 168.213 -61.1816 153.809 -61.1816 C 141.553 -61.1816 133.984 -52.7832 130.664 -41.8457 C 129.004 -36.5723 125.977 -33.3008 122.07 -31.2988 C 124.609 -24.8535 127.002 -17.6758 128.906 -10.7422 Z M 102.588 -3.51562 C 106.348 -4.98047 111.719 -6.34766 116.211 -7.17773 C 118.555 -7.51953 121.045 -7.95898 122.51 -8.78906 C 119.58 -17.3828 111.816 -38.916 106.787 -47.1191 C 100.732 -40.625 94.0918 -36.0352 86.7188 -33.3496 C 87.7441 -21.6797 93.5547 -10.3516 102.588 -3.51562 Z M 155.127 -35.3516 C 152.002 -35.3516 149.463 -37.8906 149.463 -40.9668 C 149.463 -44.043 152.002 -46.582 155.127 -46.582 C 158.154 -46.582 160.693 -44.043 160.693 -40.9668 C 160.693 -37.8906 158.154 -35.3516 155.127 -35.3516 Z M 35.791 -3.22266 C 44.3848 -9.76562 50.1465 -21.7773 51.3672 -33.0566 C 43.9453 -35.6934 37.1582 -39.8926 30.7617 -46.3867 C 28.6133 -43.1152 26.416 -39.4043 24.2676 -35.3516 C 20.459 -28.125 16.2109 -24.0234 13.1836 -20.9961 C 10.2051 -17.8711 8.74023 -16.3086 8.74023 -13.1836 C 8.74023 -8.88672 12.4023 -6.44531 18.9453 -6.44531 L 24.2188 -6.44531 C 28.0273 -6.44531 31.8359 -4.98047 35.791 -3.22266 Z M 68.9453 7.08008 C 80.3223 7.08008 88.8672 3.36914 95.5566 0.146484 C 85.498 -7.51953 79.7363 -18.6035 79.1016 -31.1523 C 75.6348 -30.4688 72.168 -30.0781 68.6523 -30.0781 C 65.332 -30.0781 62.1094 -30.4199 58.9844 -31.0059 C 58.0566 -18.7012 52.5879 -7.71484 43.2617 0.244141 C 50.0977 3.32031 58.252 7.08008 68.9453 7.08008 Z M 118.945 14.2578 C 126.66 14.2578 131.689 11.084 131.689 6.10352 C 131.689 1.46484 127.783 0.0976562 123.975 -1.07422 C 121.924 -1.51367 120.068 -1.85547 117.92 -2.24609 C 110.986 -0.585938 100.537 3.51562 95.1172 6.68945 C 100.146 11.3281 110.205 14.2578 118.945 14.2578 Z M 22.9004 14.2578 C 31.5918 14.2578 40.2344 11.2793 45.752 7.17773 C 38.7207 3.75977 30.6641 0.292969 23.584 -2.05078 C 20.9961 -1.17188 18.9453 -0.732422 16.0156 0.0976562 C 13.3301 0.830078 10.6445 2.73438 10.6445 6.05469 C 10.6445 11.0352 15.4297 14.2578 22.9004 14.2578 Z"/>
  </g>
  <g id="Bold-M" transform="matrix(1 0 0 1 2247.94 1126)">
   <path d="M 68.2617 -37.5977 C 81.3965 -37.5977 92.7734 -42.7246 101.562 -52.5879 C 92.4805 -63.623 82.666 -68.457 68.6523 -68.5059 C 54.541 -68.5059 44.0918 -63.1836 35.3027 -52.1973 C 44.043 -42.4805 55.5664 -37.5488 68.2617 -37.5977 Z M 129.004 -11.377 C 136.133 -14.1602 143.262 -18.7012 152.783 -18.7012 C 166.65 -18.7012 175.342 -23.5352 175.342 -31.2988 C 175.342 -48.8281 165.967 -60.5957 151.953 -60.5957 C 139.99 -60.5957 132.617 -52.7344 129.443 -41.6992 C 127.637 -35.791 124.658 -32.5195 120.947 -30.4688 C 123.389 -25.0488 126.367 -17.9199 129.004 -11.377 Z M 101.27 -4.63867 C 105.273 -5.95703 110.107 -7.08008 115.039 -7.61719 C 118.213 -7.8125 121.387 -8.39844 123.145 -9.32617 C 119.336 -17.3828 110.938 -38.5742 105.908 -46.6309 C 100.244 -40.625 93.0176 -35.8887 86.2793 -33.3008 C 87.3047 -22.6562 92.7246 -11.7188 101.27 -4.63867 Z M 153.174 -35.6934 C 150.293 -35.6934 147.949 -38.0371 147.949 -40.918 C 147.949 -43.75 150.293 -46.0449 153.174 -46.0449 C 155.957 -46.0449 158.301 -43.75 158.301 -40.918 C 158.301 -38.0371 155.957 -35.6934 153.174 -35.6934 Z M 35.8398 -4.3457 C 43.9453 -11.0352 49.8047 -22.7539 50.9277 -33.1055 C 43.7988 -35.6445 36.5723 -40.0391 30.7617 -45.9961 C 28.5645 -42.627 26.3184 -38.8672 24.1699 -34.7656 C 20.0684 -26.9043 15.5273 -22.7539 12.4023 -19.6777 C 9.96094 -17.2363 8.74023 -15.6738 8.74023 -12.9883 C 8.74023 -9.22852 12.207 -7.08008 18.3105 -7.08008 L 23.7793 -7.08008 C 28.1738 -7.08008 31.9824 -5.9082 35.8398 -4.3457 Z M 68.4082 6.29883 C 79.7363 6.29883 88.0371 1.85547 94.6777 -1.41602 C 85.5469 -8.88672 80.127 -19.7266 79.4434 -31.25 C 75.7812 -30.4199 72.0703 -30.0293 68.3105 -30.0293 C 64.6973 -29.9805 61.1328 -30.3711 57.7148 -31.1523 C 56.8359 -19.9707 51.6113 -9.0332 42.9199 -1.26953 C 49.5605 1.61133 57.5684 6.29883 68.4082 6.29883 Z M 116.113 13.916 C 123.486 13.916 128.516 10.8398 128.516 5.81055 C 128.516 1.36719 124.658 -0.634766 120.703 -1.46484 C 118.311 -1.80664 116.309 -2.05078 113.818 -2.39258 C 107.373 -1.2207 98.4375 2.49023 93.1641 5.66406 C 97.9004 10.6934 107.471 13.916 116.113 13.916 Z M 22.7051 13.8184 C 31.3477 13.8184 39.9902 10.5957 45.0195 5.9082 C 38.7695 2.58789 31.4453 -0.683594 24.8047 -2.29492 C 22.2168 -1.51367 19.873 -1.12305 16.9434 -0.439453 C 13.7207 0.341797 10.6445 2.19727 10.6445 5.76172 C 10.6445 10.791 15.5273 13.8184 22.7051 13.8184 Z"/>
  </g>
  <g id="Semibold-M" transform="matrix(1 0 0 1 1952.1 1126)">
   <path d="M 67.9688 -37.0605 C 81.25 -37.0605 92.5781 -42.041 101.367 -51.8555 C 92.334 -63.0371 82.6172 -68.0664 68.3594 -68.1152 C 54.1016 -68.1152 44.043 -63.0371 34.9609 -51.5625 C 43.7988 -41.7969 55.3223 -37.0117 67.9688 -37.0605 Z M 129.053 -11.8164 C 135.791 -14.4043 141.895 -19.1406 151.611 -19.1406 C 165.039 -19.1406 173.584 -23.7793 173.584 -31.3477 C 173.584 -48.584 164.453 -60.2051 150.684 -60.2051 C 138.867 -60.2051 131.689 -52.6367 128.564 -41.6504 C 126.709 -35.2051 123.779 -31.9336 120.166 -29.8828 C 122.607 -25.1953 125.928 -18.1152 129.053 -11.8164 Z M 100.342 -5.37109 C 104.492 -6.64062 109.033 -7.56836 114.258 -7.91016 C 117.969 -8.05664 121.631 -8.64258 123.584 -9.7168 C 119.189 -17.3828 110.352 -38.3789 105.322 -46.3379 C 99.8535 -40.625 92.334 -35.7422 85.9863 -33.3008 C 86.9629 -23.3398 92.1875 -12.6465 100.342 -5.37109 Z M 35.8398 -5.12695 C 43.6523 -11.9141 49.5605 -23.3887 50.5859 -33.1055 C 43.7012 -35.5957 36.1816 -40.1367 30.7617 -45.752 C 28.5645 -42.334 26.2207 -38.5254 24.0723 -34.3262 C 19.8242 -26.0254 15.0391 -21.8262 11.8652 -18.75 C 9.81445 -16.748 8.74023 -15.2832 8.74023 -12.8906 C 8.74023 -9.42383 12.0605 -7.51953 17.8711 -7.51953 L 23.4863 -7.51953 C 28.2715 -7.51953 32.0801 -6.49414 35.8398 -5.12695 Z M 151.807 -35.8887 C 149.121 -35.8887 146.875 -38.1348 146.875 -40.8203 C 146.875 -43.5059 149.121 -45.7031 151.807 -45.7031 C 154.492 -45.7031 156.689 -43.5059 156.689 -40.8203 C 156.689 -38.1348 154.492 -35.8887 151.807 -35.8887 Z M 68.0664 5.76172 C 79.3457 5.76172 87.4512 0.78125 94.0918 -2.49023 C 85.5957 -9.81445 80.3711 -20.5078 79.6387 -31.3477 C 75.8301 -30.4199 72.0215 -29.9316 68.0664 -29.9316 C 64.2578 -29.9316 60.498 -30.3711 56.8848 -31.2012 C 56.0059 -20.8496 50.9277 -9.96094 42.6758 -2.29492 C 49.2188 0.439453 57.0801 5.76172 68.0664 5.76172 Z M 114.16 13.6719 C 121.289 13.6719 126.367 10.6934 126.367 5.61523 C 126.367 1.31836 122.51 -1.07422 118.457 -1.75781 C 115.82 -2.00195 113.721 -2.19727 110.986 -2.49023 C 104.834 -1.61133 96.9727 1.80664 91.8457 4.98047 C 96.3379 10.2539 105.566 13.6719 114.16 13.6719 Z M 22.6074 13.5742 C 31.2012 13.5742 39.8438 10.1562 44.5312 5.07812 C 38.8184 1.80664 31.9336 -1.36719 25.6348 -2.49023 C 23.0469 -1.70898 20.5078 -1.41602 17.5781 -0.78125 C 13.9648 0 10.6445 1.80664 10.6445 5.51758 C 10.6445 10.5957 15.625 13.5742 22.6074 13.5742 Z"/>
  </g>
  <g id="Medium-M" transform="matrix(1 0 0 1 1656.03 1126)">
   <path d="M 67.7734 -36.6211 C 81.1523 -36.6699 92.4316 -41.5039 101.221 -51.2695 C 92.1875 -62.5488 82.5684 -67.7246 68.1641 -67.8223 C 53.7598 -67.8223 43.9453 -62.8906 34.7168 -51.0254 C 43.6035 -41.2598 55.1758 -36.6211 67.7734 -36.6211 Z M 129.102 -12.1094 C 135.547 -14.5508 140.82 -19.4824 150.684 -19.4824 C 163.867 -19.4824 172.314 -24.0234 172.314 -31.3965 C 172.314 -48.3887 163.281 -59.8633 149.707 -59.8633 C 138.037 -59.8633 130.957 -52.5879 127.93 -41.5527 C 125.977 -34.8145 123.096 -31.543 119.531 -29.4434 C 121.973 -25.293 125.586 -18.2129 129.102 -12.1094 Z M 99.6582 -5.9082 C 103.955 -7.12891 108.203 -7.91016 113.623 -8.10547 C 117.773 -8.20312 121.826 -8.83789 123.926 -10.0098 C 119.092 -17.3828 109.912 -38.1836 104.883 -46.0938 C 99.6094 -40.5762 91.7969 -35.6445 85.791 -33.3008 C 86.6699 -23.877 91.7969 -13.3789 99.6582 -5.9082 Z M 35.8398 -5.71289 C 43.457 -12.5977 49.3652 -23.9258 50.3418 -33.1543 C 43.6035 -35.5957 35.8887 -40.1855 30.7617 -45.5566 C 28.5156 -42.0898 26.1719 -38.2324 23.9746 -33.9844 C 19.6289 -25.3906 14.6973 -21.1914 11.4258 -18.0664 C 9.7168 -16.4062 8.74023 -14.9414 8.74023 -12.793 C 8.74023 -9.57031 11.9141 -7.8125 17.5293 -7.8125 L 23.2422 -7.8125 C 28.3691 -7.8125 32.1289 -6.98242 35.8398 -5.71289 Z M 150.83 -36.084 C 148.193 -36.084 146.094 -38.1836 146.094 -40.7715 C 146.094 -43.3594 148.193 -45.459 150.83 -45.459 C 153.32 -45.459 155.469 -43.3594 155.469 -40.7715 C 155.469 -38.1836 153.32 -36.084 150.83 -36.084 Z M 67.7734 5.32227 C 79.0039 5.32227 87.0117 -0.0488281 93.6523 -3.27148 C 85.5957 -10.498 80.5664 -21.0938 79.834 -31.3965 C 75.9277 -30.3711 71.9727 -29.8828 67.9199 -29.8828 C 63.916 -29.8828 60.0098 -30.3711 56.25 -31.2988 C 55.4199 -21.5332 50.3906 -10.6445 42.4805 -3.07617 C 48.9258 -0.488281 56.6895 5.32227 67.7734 5.32227 Z M 22.5098 13.3301 C 31.0547 13.3301 39.7461 9.81445 44.1895 4.44336 C 38.8672 1.2207 32.3242 -1.9043 26.2695 -2.63672 C 23.6816 -1.85547 20.9961 -1.66016 18.0176 -1.02539 C 14.209 -0.244141 10.6445 1.51367 10.6445 5.37109 C 10.6445 10.4492 15.6738 13.3301 22.5098 13.3301 Z M 112.695 13.4766 C 119.629 13.4766 124.707 10.5957 124.707 5.46875 C 124.707 1.31836 120.85 -1.46484 116.748 -1.95312 C 113.965 -2.14844 111.719 -2.29492 108.887 -2.53906 C 102.979 -1.95312 95.8496 1.26953 90.8203 4.44336 C 95.166 9.91211 104.15 13.4766 112.695 13.4766 Z"/>
  </g>
  <g id="Regular-M" transform="matrix(1 0 0 1 1360.17 1126)">
   <path d="M 67.5293 -36.084 C 81.0059 -36.1328 92.1875 -40.8691 101.025 -50.5371 C 92.041 -61.9629 82.4707 -67.334 67.8711 -67.3828 C 53.3203 -67.4316 43.8965 -62.7441 34.375 -50.3418 C 43.3594 -40.625 54.9805 -36.0352 67.5293 -36.084 Z M 129.15 -12.5488 C 135.205 -14.7949 139.453 -19.9219 149.512 -19.9219 C 162.256 -19.9219 170.605 -24.2676 170.605 -31.4941 C 170.605 -48.1445 161.768 -59.4727 148.438 -59.4727 C 136.963 -59.4727 129.98 -52.5391 127.1 -41.5039 C 125.049 -34.2285 122.168 -31.0059 118.799 -28.8574 C 121.143 -25.4395 125.146 -18.4082 129.15 -12.5488 Z M 98.7793 -6.68945 C 103.223 -7.76367 107.129 -8.39844 112.842 -8.39844 C 117.529 -8.39844 122.07 -9.13086 124.316 -10.4004 C 118.945 -17.3828 109.326 -37.9883 104.297 -45.8008 C 99.2676 -40.5762 91.1133 -35.498 85.498 -33.3008 C 86.377 -24.5117 91.2109 -14.3066 98.7793 -6.68945 Z M 35.8398 -6.44531 C 43.1641 -13.4766 49.1211 -24.5605 50.0488 -33.1543 C 43.5059 -35.5957 35.498 -40.2832 30.8105 -45.3125 C 28.5156 -41.748 26.0742 -37.8906 23.9258 -33.5938 C 19.3848 -24.5117 14.209 -20.3125 10.8887 -17.1875 C 9.57031 -15.9668 8.74023 -14.5508 8.74023 -12.6465 C 8.74023 -9.81445 11.7676 -8.25195 17.0898 -8.25195 L 22.9492 -8.25195 C 28.4668 -8.25195 32.2266 -7.56836 35.8398 -6.44531 Z M 149.463 -36.3281 C 147.07 -36.3281 145.068 -38.2812 145.068 -40.7227 C 145.068 -43.1152 147.07 -45.1172 149.463 -45.1172 C 151.855 -45.1172 153.857 -43.1152 153.857 -40.7227 C 153.857 -38.2812 151.855 -36.3281 149.463 -36.3281 Z M 67.4316 4.78516 C 78.6133 4.78516 86.4746 -1.07422 93.0664 -4.3457 C 85.5957 -11.4258 80.8105 -21.875 80.0781 -31.4941 C 76.0254 -30.3711 71.9238 -29.834 67.6758 -29.834 C 63.4277 -29.7852 59.3262 -30.3711 55.3711 -31.3965 C 54.5898 -22.4121 49.707 -11.5234 42.2363 -4.10156 C 48.584 -1.61133 56.25 4.78516 67.4316 4.78516 Z M 22.4121 13.0859 C 30.9082 13.0859 39.5996 9.32617 43.7012 3.61328 C 38.916 0.439453 32.8613 -2.53906 27.0996 -2.7832 C 24.5117 -2.09961 21.6309 -1.95312 18.6523 -1.36719 C 14.4531 -0.585938 10.6445 1.12305 10.6445 5.17578 C 10.6445 10.3027 15.7715 13.0859 22.4121 13.0859 Z M 110.791 13.1836 C 117.432 13.1836 122.559 10.4004 122.559 5.27344 C 122.559 1.26953 118.75 -1.9043 114.551 -2.24609 C 111.523 -2.39258 109.18 -2.44141 106.104 -2.63672 C 100.488 -2.34375 94.4336 0.634766 89.502 3.71094 C 93.6035 9.47266 102.295 13.1836 110.791 13.1836 Z"/>
  </g>
  <g id="Light-M" transform="matrix(1 0 0 1 1062.97 1126)">
   <path d="M 67.7734 -35.3027 C 81.7871 -35.3516 92.8223 -40.1367 101.953 -49.1699 C 93.3594 -60.5469 83.5938 -66.9434 68.4082 -66.9922 C 53.4668 -66.9922 43.8477 -62.2559 34.1309 -48.9746 C 43.2129 -39.9902 54.4434 -35.3027 67.7734 -35.3027 Z M 128.564 -12.5488 C 134.766 -14.7461 141.064 -20.6543 151.709 -20.6543 C 163.379 -20.6543 171.582 -24.707 171.582 -31.9824 C 171.582 -47.6562 162.988 -59.0332 150.098 -59.0332 C 138.721 -59.0332 132.568 -51.5137 129.443 -41.4062 C 126.66 -33.3984 124.023 -29.7852 118.994 -27.3438 C 121.289 -23.9746 124.854 -17.8223 128.564 -12.5488 Z M 99.4629 -6.54297 C 104.395 -8.05664 108.887 -9.17969 114.893 -9.17969 C 118.799 -9.17969 122.656 -9.61914 124.561 -10.791 C 118.945 -17.7734 109.619 -37.3535 104.59 -45.4102 C 99.4141 -40.5762 92.1387 -36.0352 86.3281 -33.7891 C 87.3047 -23.9746 91.4551 -14.9902 99.4629 -6.54297 Z M 151.416 -36.4258 C 148.975 -36.4258 146.973 -38.4277 146.973 -40.8691 C 146.973 -43.3105 148.975 -45.2637 151.416 -45.2637 C 153.76 -45.2637 155.762 -43.3105 155.762 -40.8691 C 155.762 -38.4277 153.76 -36.4258 151.416 -36.4258 Z M 36.3281 -6.5918 C 43.6523 -14.1113 48.7793 -24.4141 50 -33.4961 C 43.2129 -35.8887 35.9863 -40.2832 31.25 -44.9219 C 28.7109 -41.0645 26.1719 -36.5723 23.7793 -32.1289 C 19.4824 -23.9746 13.916 -18.8965 10.5957 -16.1133 C 9.42383 -15.1367 8.74023 -13.916 8.74023 -12.3047 C 8.74023 -10.1074 11.2305 -8.83789 15.4297 -8.83789 L 21.9727 -8.83789 C 27.9785 -8.83789 32.2754 -7.91016 36.3281 -6.5918 Z M 66.9922 3.85742 C 79.248 3.85742 87.6465 -1.31836 94.7754 -4.58984 C 87.0117 -12.5488 82.7637 -21.9238 81.7871 -32.2266 C 77.3438 -30.957 72.7051 -30.3223 67.8711 -30.3223 C 63.0371 -30.2734 58.5449 -30.9082 54.3457 -32.0312 C 53.2715 -22.7539 49.0234 -13.0859 41.3574 -4.63867 C 48.0957 -1.80664 55.6152 3.85742 66.9922 3.85742 Z M 22.7051 11.7188 C 30.5664 11.7188 38.8672 7.86133 42.7734 1.80664 C 38.4766 -0.976562 33.3008 -3.4668 28.125 -4.00391 C 25.7812 -3.22266 23.1445 -3.07617 20.1172 -2.39258 C 15.1855 -1.41602 11.7188 0.390625 11.7188 4.3457 C 11.7188 9.0332 16.2598 11.7188 22.7051 11.7188 Z M 111.768 12.0117 C 118.213 12.0117 122.803 9.32617 122.803 4.6875 C 122.803 0.683594 119.287 -2.09961 114.355 -2.73438 C 111.328 -3.07617 108.984 -3.22266 106.348 -3.71094 C 101.465 -3.07617 96.2891 -0.585938 91.6992 2.09961 C 95.6055 8.1543 103.906 12.0117 111.768 12.0117 Z"/>
  </g>
  <g id="Thin-M" transform="matrix(1 0 0 1 765.602 1126)">
   <path d="M 68.1152 -34.2773 C 82.8125 -34.2773 93.6523 -39.209 103.174 -47.3633 C 95.1172 -58.6914 85.0098 -66.4062 69.0918 -66.4551 C 53.6133 -66.4551 43.8477 -61.6211 33.7891 -47.2168 C 43.0176 -39.1602 53.7109 -34.2285 68.1152 -34.2773 Z M 127.783 -12.5 C 134.277 -14.5996 143.115 -21.5332 154.59 -21.5332 C 164.844 -21.5332 172.9 -25.3418 172.9 -32.666 C 172.9 -47.0215 164.6 -58.4473 152.295 -58.4473 C 141.064 -58.4473 135.986 -50.0977 132.52 -41.3086 C 128.76 -32.2266 126.514 -28.125 119.238 -25.3418 C 121.484 -22.0215 124.463 -17.041 127.783 -12.5 Z M 153.955 -36.6211 C 151.514 -36.6211 149.512 -38.623 149.512 -41.0156 C 149.512 -43.5059 151.514 -45.459 153.955 -45.459 C 156.299 -45.459 158.301 -43.5059 158.301 -41.0156 C 158.301 -38.623 156.299 -36.6211 153.955 -36.6211 Z M 100.391 -6.34766 C 105.957 -8.44727 111.182 -10.1562 117.529 -10.1562 C 120.508 -10.1562 123.389 -10.3027 124.854 -11.2793 C 118.945 -18.3105 110.01 -36.5234 104.932 -44.9219 C 99.6094 -40.5273 93.5059 -36.7188 87.4512 -34.4238 C 88.5742 -23.1934 91.6992 -15.8691 100.391 -6.34766 Z M 36.9141 -6.73828 C 44.2871 -14.9414 48.3398 -24.1699 49.9512 -33.9355 C 42.8711 -36.3281 36.6699 -40.2832 31.8359 -44.4824 C 29.0527 -40.0879 26.3184 -34.8633 23.584 -30.1758 C 19.6289 -23.1934 13.5254 -17.041 10.2051 -14.7461 C 9.27734 -14.0137 8.74023 -13.0371 8.74023 -11.8652 C 8.74023 -10.5469 10.498 -9.66797 13.2324 -9.66797 L 20.6543 -9.66797 C 27.2949 -9.66797 32.3242 -8.34961 36.9141 -6.73828 Z M 66.4062 2.58789 C 80.0781 2.58789 89.1602 -1.61133 97.0703 -4.98047 C 88.8672 -14.0625 85.3027 -21.9727 84.0332 -33.3008 C 79.1016 -31.7383 73.7793 -30.9082 68.1152 -30.9082 C 62.5 -30.9082 57.5195 -31.6895 53.0273 -32.9102 C 51.5137 -23.1934 48.1445 -15.1367 40.1855 -5.37109 C 47.4609 -2.05078 54.7852 2.58789 66.4062 2.58789 Z M 23.0469 9.96094 C 30.127 9.96094 37.9883 5.9082 41.5527 -0.585938 C 37.9883 -2.83203 33.8867 -4.6875 29.541 -5.66406 C 27.4414 -4.6875 25.1465 -4.54102 22.0215 -3.75977 C 16.2109 -2.49023 13.0859 -0.537109 13.0859 3.32031 C 13.0859 7.37305 16.8945 9.96094 23.0469 9.96094 Z M 113.135 10.4492 C 119.238 10.4492 123.096 7.91016 123.096 3.85742 C 123.096 0 119.971 -2.29492 114.111 -3.4668 C 111.035 -4.05273 108.691 -4.29688 106.641 -5.12695 C 102.783 -3.95508 98.7305 -2.09961 94.6289 -0.0976562 C 98.1934 6.44531 106.006 10.4492 113.135 10.4492 Z"/>
  </g>
  <g id="Ultralight-M" transform="matrix(1 0 0 1 468.549 1126)">
   <path d="M 68.2617 -33.7402 C 83.3008 -33.7402 94.0918 -38.7207 103.857 -46.4844 C 95.9961 -57.7637 85.791 -66.1621 69.4824 -66.1621 C 53.6621 -66.1621 43.8477 -61.2793 33.5938 -46.2891 C 42.9688 -38.7207 53.3203 -33.7402 68.2617 -33.7402 Z M 127.393 -12.5 C 133.984 -14.5508 144.189 -22.0215 156.055 -22.0215 C 165.625 -22.0215 173.584 -25.6348 173.584 -32.959 C 173.584 -46.6797 165.43 -58.1543 153.418 -58.1543 C 142.285 -58.1543 137.695 -49.4141 134.082 -41.2598 C 129.883 -31.6406 127.734 -27.2949 119.385 -24.3164 C 121.533 -21.0449 124.268 -16.6504 127.393 -12.5 Z M 155.225 -36.7188 C 152.832 -36.7188 150.83 -38.6719 150.83 -41.1133 C 150.83 -43.6035 152.832 -45.5566 155.225 -45.5566 C 157.617 -45.5566 159.619 -43.6035 159.619 -41.1133 C 159.619 -38.6719 157.617 -36.7188 155.225 -36.7188 Z M 100.879 -6.25 C 106.787 -8.64258 112.354 -10.6934 118.896 -10.6934 C 121.387 -10.6934 123.779 -10.6934 125 -11.5234 C 118.945 -18.6035 110.205 -36.084 105.127 -44.6289 C 99.7559 -40.4785 94.1895 -37.1094 87.9883 -34.7168 C 89.209 -22.8027 91.8457 -16.3574 100.879 -6.25 Z M 37.2559 -6.83594 C 44.5801 -15.332 48.0957 -24.0234 49.9512 -34.1797 C 42.6758 -36.5234 37.0117 -40.332 32.1289 -44.2383 C 29.1992 -39.5996 26.3672 -33.9844 23.4863 -29.1992 C 19.7266 -22.8027 13.3301 -16.1133 10.0098 -14.0137 C 9.17969 -13.4766 8.74023 -12.5977 8.74023 -11.6211 C 8.74023 -10.791 10.1562 -10.0586 12.0605 -10.0586 L 19.9707 -10.0586 C 26.9531 -10.0586 32.373 -8.59375 37.2559 -6.83594 Z M 66.1133 1.95312 C 80.5176 1.95312 89.9414 -1.75781 98.1934 -5.17578 C 89.8438 -14.7949 86.6211 -21.9727 85.2051 -33.7891 C 79.9805 -32.1289 74.3652 -31.25 68.2617 -31.25 C 62.2559 -31.25 56.9824 -32.0312 52.2949 -33.3496 C 50.6348 -23.4375 47.7051 -16.2109 39.5996 -5.76172 C 47.168 -2.19727 54.3945 1.95312 66.1133 1.95312 Z M 23.1934 9.0332 C 29.9316 9.0332 37.5 4.93164 40.918 -1.80664 C 37.6953 -3.80859 34.1797 -5.32227 30.2246 -6.49414 C 28.3203 -5.46875 26.1719 -5.27344 23.0469 -4.44336 C 16.6992 -3.02734 13.7695 -1.02539 13.7695 2.7832 C 13.7695 6.54297 17.2363 9.0332 23.1934 9.0332 Z M 113.818 9.66797 C 119.775 9.66797 123.242 7.17773 123.242 3.41797 C 123.242 -0.390625 120.312 -2.44141 114.014 -3.80859 C 110.889 -4.49219 108.594 -4.83398 106.787 -5.85938 C 103.467 -4.44336 99.9512 -2.92969 96.0938 -1.2207 C 99.5117 5.56641 107.129 9.66797 113.818 9.66797 Z"/>
  </g>
  <g id="Black-S" transform="matrix(1 0 0 1 2859.55 696)">
   <path d="M 54.0039 -38.1836 C 64.0625 -38.1836 73.0957 -42.4805 79.9805 -50.3906 C 72.7539 -58.7402 64.8926 -62.1094 54.3457 -62.1582 C 43.6035 -62.1094 34.7168 -57.4707 28.3691 -49.9512 C 35.0098 -42.334 43.9453 -38.1836 54.0039 -38.1836 Z M 100.928 -15.625 C 107.373 -18.2129 115.039 -21.3379 122.119 -21.3379 C 133.789 -21.3379 140.869 -25.4883 140.869 -31.9824 C 140.869 -46.4355 133.154 -55.957 121.631 -55.957 C 111.865 -55.957 105.811 -49.0723 103.076 -40.4785 C 101.904 -36.8164 99.4629 -34.2285 96.3379 -32.7148 C 98.3398 -27.002 99.9023 -21.3379 100.928 -15.625 Z M 81.2012 -9.7168 C 83.9844 -10.9375 88.4766 -12.1582 91.748 -12.9883 C 93.0664 -13.3301 94.5801 -13.623 95.5566 -14.1602 C 93.7988 -21.2402 88.1348 -38.3301 84.1797 -44.8242 C 79.248 -39.4531 74.3164 -35.9863 68.1641 -33.7402 C 69.043 -24.0234 73.7793 -14.8438 81.2012 -9.7168 Z M 122.705 -35.1074 C 120.117 -35.1074 118.018 -37.207 118.018 -39.7949 C 118.018 -42.334 120.117 -44.4336 122.705 -44.4336 C 125.244 -44.4336 127.344 -42.334 127.344 -39.7949 C 127.344 -37.207 125.244 -35.1074 122.705 -35.1074 Z M 28.0273 -9.47266 C 35.0098 -14.4531 39.502 -24.0723 40.5273 -33.4961 C 34.5215 -35.5957 29.4434 -38.8184 24.0723 -44.1895 C 22.4121 -41.6992 20.752 -38.8672 19.0918 -35.7422 C 16.2598 -30.4688 13.1348 -27.2949 10.8398 -24.9023 C 8.10547 -22.0703 6.83594 -20.8008 6.83594 -18.0664 C 6.83594 -14.4043 9.86328 -12.2559 15.2344 -12.2559 L 19.2383 -12.2559 C 21.875 -12.2559 24.8535 -10.9863 28.0273 -9.47266 Z M 54.3457 -1.5625 C 63.2812 -1.5625 70.1172 -4.00391 75.3418 -6.54297 C 66.9434 -12.6465 62.207 -21.4844 61.7188 -31.9336 C 59.1309 -31.4941 56.5918 -31.25 54.0039 -31.25 C 51.6113 -31.25 49.2676 -31.4453 46.9727 -31.8359 C 46.2402 -21.4844 41.8457 -12.793 34.1309 -6.49414 C 39.5996 -3.95508 46.0938 -1.5625 54.3457 -1.5625 Z M 94.9219 3.80859 C 101.221 3.80859 105.127 1.2207 105.127 -2.68555 C 105.127 -6.44531 102.051 -7.12891 99.1699 -8.20312 C 97.7539 -8.59375 96.4355 -8.93555 94.9219 -9.27734 C 89.209 -7.71484 80.0293 -4.24805 75.6836 -1.70898 C 79.834 1.66016 88.0371 3.80859 94.9219 3.80859 Z M 18.0176 3.80859 C 24.9023 3.80859 31.6406 1.66016 36.2793 -1.2207 C 30.2734 -3.95508 23.5352 -6.78711 17.6758 -9.0332 C 15.6738 -8.34961 14.209 -7.91016 11.9629 -7.22656 C 10.1562 -6.64062 8.30078 -5.12695 8.30078 -2.68555 C 8.30078 1.2207 12.0117 3.80859 18.0176 3.80859 Z"/>
  </g>
  <g id="Heavy-S" transform="matrix(1 0 0 1 2563.74 696)">
   <path d="M 53.7109 -37.7441 C 63.8184 -37.7441 72.8027 -41.8945 79.6875 -49.8047 C 72.4609 -58.3008 64.6973 -61.7676 54.0039 -61.8164 C 43.1641 -61.7676 34.6191 -57.373 28.0762 -49.4141 C 34.7656 -41.6992 43.7988 -37.7441 53.7109 -37.7441 Z M 101.074 -16.0645 C 107.08 -18.457 113.477 -21.7285 120.703 -21.7285 C 132.08 -21.7285 139.062 -25.7324 139.062 -31.9824 C 139.062 -46.2402 131.494 -55.6152 120.166 -55.6152 C 110.596 -55.6152 104.59 -49.1211 102.002 -40.4297 C 100.781 -36.377 98.3887 -33.8379 95.5566 -32.3242 C 97.5098 -27.2949 99.5117 -21.582 101.074 -16.0645 Z M 80.2246 -10.4492 C 83.1055 -11.5723 87.207 -12.5488 90.7227 -13.1836 C 92.6758 -13.4277 94.7754 -13.8184 95.9473 -14.502 C 93.6523 -21.1914 87.5 -38.1836 83.5449 -44.5801 C 78.8574 -39.4531 73.4863 -35.791 67.7734 -33.6914 C 68.6035 -24.7559 73.1934 -15.7227 80.2246 -10.4492 Z M 121.143 -35.3027 C 118.75 -35.3027 116.748 -37.3047 116.748 -39.6973 C 116.748 -42.0898 118.75 -44.0918 121.143 -44.0918 C 123.535 -44.0918 125.537 -42.0898 125.537 -39.6973 C 125.537 -37.3047 123.535 -35.3027 121.143 -35.3027 Z M 27.9785 -10.2051 C 34.668 -15.2832 39.3066 -24.7559 40.2344 -33.4961 C 34.4238 -35.5469 29.0039 -38.916 24.0234 -43.9941 C 22.3633 -41.4551 20.6543 -38.623 18.9941 -35.498 C 15.9668 -29.6875 12.6953 -26.5625 10.3027 -24.1211 C 7.95898 -21.7285 6.83594 -20.459 6.83594 -17.9688 C 6.83594 -14.5996 9.76562 -12.6465 14.9902 -12.6465 L 19.043 -12.6465 C 22.0215 -12.6465 24.9512 -11.5723 27.9785 -10.2051 Z M 54.0527 -2.00195 C 62.793 -2.00195 69.4336 -5.0293 74.5605 -7.56836 C 66.7969 -13.4277 62.2559 -22.2656 61.7676 -31.9336 C 59.082 -31.3965 56.4453 -31.1523 53.7598 -31.1523 C 51.2207 -31.1523 48.6816 -31.3965 46.2402 -31.8359 C 45.5566 -22.3145 41.2109 -13.5254 33.9844 -7.4707 C 39.3066 -5.12695 45.7031 -2.00195 54.0527 -2.00195 Z M 92.8711 3.66211 C 98.9746 3.66211 102.93 1.17188 102.93 -2.7832 C 102.93 -6.44531 99.8535 -7.56836 96.9727 -8.39844 C 95.3125 -8.74023 93.8965 -8.98438 92.0898 -9.27734 C 86.6211 -8.05664 78.3691 -4.78516 74.1211 -2.24609 C 78.0762 1.36719 85.9863 3.66211 92.8711 3.66211 Z M 17.8711 3.66211 C 24.7559 3.66211 31.5918 1.36719 35.8887 -1.85547 C 30.3711 -4.58984 24.0234 -7.37305 18.4082 -9.08203 C 16.3574 -8.44727 14.6973 -8.05664 12.4023 -7.4707 C 10.3516 -6.88477 8.20312 -5.41992 8.20312 -2.7832 C 8.20312 1.17188 12.0117 3.66211 17.8711 3.66211 Z"/>
  </g>
  <g id="Bold-S" transform="matrix(1 0 0 1 2268.05 696)">
   <path d="M 53.3691 -37.2559 C 63.5742 -37.2559 72.5098 -41.2109 79.3457 -49.1211 C 72.1191 -57.8125 64.502 -61.3281 53.6133 -61.377 C 42.6758 -61.377 34.5215 -57.2266 27.7344 -48.8281 C 34.5215 -41.0645 43.6523 -37.207 53.3691 -37.2559 Z M 101.221 -16.5527 C 106.738 -18.75 111.768 -22.1191 119.092 -22.1191 C 130.176 -22.1191 137.012 -25.9766 137.012 -32.0312 C 137.012 -45.9961 129.639 -55.1758 118.555 -55.1758 C 109.131 -55.1758 103.223 -49.1699 100.781 -40.332 C 99.5605 -35.8398 97.1191 -33.3984 94.6289 -31.8359 C 96.582 -27.6367 99.0723 -21.8262 101.221 -16.5527 Z M 79.1016 -11.3281 C 82.1289 -12.2559 85.791 -12.9883 89.5996 -13.4277 C 92.2852 -13.5742 94.9707 -14.0625 96.4355 -14.8926 C 93.5059 -21.1426 86.8164 -38.0371 82.8613 -44.2383 C 78.4668 -39.4531 72.6074 -35.5957 67.3828 -33.5938 C 68.1152 -25.5859 72.5586 -16.6992 79.1016 -11.3281 Z M 27.9297 -11.0352 C 34.2773 -16.1621 39.0625 -25.5371 39.8438 -33.4961 C 34.375 -35.498 28.5156 -39.0137 23.9746 -43.75 C 22.3145 -41.2109 20.5566 -38.3789 18.9453 -35.2051 C 15.6738 -28.8086 12.207 -25.7324 9.76562 -23.2422 C 7.8125 -21.2891 6.83594 -20.0684 6.83594 -17.8711 C 6.83594 -14.7949 9.66797 -13.0371 14.6973 -13.0371 L 18.8477 -13.0371 C 22.2168 -13.0371 25.0488 -12.207 27.9297 -11.0352 Z M 119.434 -35.5469 C 117.188 -35.5469 115.381 -37.4023 115.381 -39.6484 C 115.381 -41.8457 117.188 -43.6523 119.434 -43.6523 C 121.631 -43.6523 123.486 -41.8457 123.486 -39.6484 C 123.486 -37.4023 121.631 -35.5469 119.434 -35.5469 Z M 53.6621 -2.49023 C 62.3047 -2.49023 68.6523 -6.20117 73.7305 -8.69141 C 66.6504 -14.3555 62.3047 -23.1445 61.8164 -31.9336 C 59.0332 -31.2988 56.25 -31.0059 53.4668 -31.0059 C 50.7324 -31.0059 48.0469 -31.2988 45.4102 -31.8848 C 44.8242 -23.2422 40.5273 -14.3555 33.8379 -8.54492 C 38.916 -6.39648 45.2148 -2.49023 53.6621 -2.49023 Z M 90.625 3.56445 C 96.4355 3.56445 100.488 1.12305 100.488 -2.92969 C 100.488 -6.39648 97.4121 -8.10547 94.4824 -8.64258 C 92.627 -8.88672 91.0156 -9.0332 88.9648 -9.22852 C 83.7402 -8.44727 76.5625 -5.41992 72.3633 -2.83203 C 76.123 1.02539 83.6914 3.56445 90.625 3.56445 Z M 17.7246 3.51562 C 24.6094 3.51562 31.4941 1.02539 35.498 -2.58789 C 30.4688 -5.27344 24.5117 -7.95898 19.1895 -9.13086 C 17.1387 -8.54492 15.1855 -8.25195 12.9395 -7.71484 C 10.5469 -7.17773 8.05664 -5.76172 8.05664 -2.92969 C 8.05664 1.12305 12.0605 3.51562 17.7246 3.51562 Z"/>
  </g>
  <g id="Semibold-S" transform="matrix(1 0 0 1 1972.05 696)">
   <path d="M 53.1738 -36.9141 C 63.3789 -36.9141 72.3145 -40.7715 79.1016 -48.6816 C 71.875 -57.4707 64.3555 -61.084 53.3691 -61.1328 C 42.334 -61.1328 34.4727 -57.1777 27.4902 -48.4375 C 34.3262 -40.5762 43.5059 -36.8652 53.1738 -36.9141 Z M 101.318 -16.8945 C 106.494 -18.9453 110.596 -22.4121 117.969 -22.4121 C 128.857 -22.4121 135.596 -26.123 135.596 -32.0312 C 135.596 -45.8496 128.369 -54.9316 117.432 -54.9316 C 108.154 -54.9316 102.246 -49.2188 99.9023 -40.2832 C 98.6816 -35.498 96.2891 -33.0566 94.043 -31.543 C 95.9473 -27.8809 98.7305 -22.0215 101.318 -16.8945 Z M 78.3691 -11.9141 C 81.4453 -12.7441 84.8145 -13.2812 88.8184 -13.5742 C 91.9922 -13.6719 95.1172 -14.2578 96.7285 -15.1367 C 93.3594 -21.0938 86.3281 -37.8906 82.4219 -44.043 C 78.1738 -39.4531 71.9727 -35.4492 67.0898 -33.5449 C 67.7734 -26.123 72.1191 -17.334 78.3691 -11.9141 Z M 27.9297 -11.6211 C 34.0332 -16.7969 38.916 -26.0742 39.6484 -33.4473 C 34.2773 -35.4492 28.1738 -39.0625 23.9746 -43.6035 C 22.2656 -41.0156 20.5078 -38.2324 18.8965 -35.0098 C 15.4785 -28.1738 11.8652 -25.1953 9.32617 -22.6562 C 7.71484 -20.9961 6.83594 -19.8242 6.83594 -17.8223 C 6.83594 -14.8926 9.61914 -13.3301 14.502 -13.3301 L 18.7012 -13.3301 C 22.3145 -13.3301 25.0977 -12.5977 27.9297 -11.6211 Z M 118.262 -35.7422 C 116.113 -35.7422 114.404 -37.4512 114.404 -39.5996 C 114.404 -41.6504 116.113 -43.3594 118.262 -43.3594 C 120.312 -43.3594 122.07 -41.6504 122.07 -39.5996 C 122.07 -37.4512 120.312 -35.7422 118.262 -35.7422 Z M 53.418 -2.83203 C 61.9141 -2.83203 68.1152 -6.98242 73.1445 -9.52148 C 66.5527 -14.9414 62.3047 -23.7305 61.8164 -31.9336 C 58.9844 -31.25 56.1523 -30.957 53.2715 -30.957 C 50.4395 -30.9082 47.6074 -31.25 44.873 -31.8848 C 44.2871 -23.877 40.0879 -14.9414 33.6914 -9.27734 C 38.6719 -7.27539 44.873 -2.83203 53.418 -2.83203 Z M 89.0137 3.4668 C 94.6777 3.4668 98.8281 1.12305 98.8281 -3.02734 C 98.8281 -6.39648 95.7031 -8.44727 92.7734 -8.83789 C 90.7227 -8.98438 89.0625 -9.08203 86.7676 -9.22852 C 81.7383 -8.69141 75.293 -5.85938 71.1426 -3.22266 C 74.7559 0.830078 82.1289 3.4668 89.0137 3.4668 Z M 17.627 3.41797 C 24.5117 3.41797 31.4453 0.78125 35.2051 -3.07617 C 30.5176 -5.76172 24.9023 -8.39844 19.7266 -9.17969 C 17.627 -8.59375 15.5762 -8.39844 13.2812 -7.91016 C 10.6934 -7.37305 7.95898 -6.00586 7.95898 -3.02734 C 7.95898 1.07422 12.0605 3.41797 17.627 3.41797 Z"/>
  </g>
  <g id="Medium-S" transform="matrix(1 0 0 1 1675.85 696)">
   <path d="M 52.9785 -36.6211 C 63.2324 -36.6699 72.1191 -40.4297 78.9062 -48.3398 C 71.6797 -57.1777 64.209 -60.8398 53.1738 -60.8887 C 42.041 -60.9375 34.4238 -57.0801 27.2949 -48.1445 C 34.1797 -40.2344 43.457 -36.6211 52.9785 -36.6211 Z M 101.367 -17.1387 C 106.299 -19.0918 109.668 -22.6074 117.139 -22.6074 C 127.881 -22.6074 134.57 -26.2695 134.57 -32.0312 C 134.57 -45.752 127.393 -54.6875 116.602 -54.6875 C 107.422 -54.6875 101.514 -49.2676 99.2676 -40.2344 C 98.0469 -35.2051 95.6543 -32.8125 93.5547 -31.2988 C 95.459 -28.0762 98.4863 -22.168 101.367 -17.1387 Z M 77.7832 -12.3535 C 80.957 -13.0859 84.0332 -13.5254 88.1836 -13.6719 C 91.748 -13.7695 95.2148 -14.3555 96.9727 -15.332 C 93.2617 -21.0938 85.9863 -37.793 82.0312 -43.8965 C 77.9297 -39.4531 71.4844 -35.3516 66.8457 -33.5449 C 67.5293 -26.5625 71.8262 -17.8711 77.7832 -12.3535 Z M 27.8809 -12.0605 C 33.8379 -17.2363 38.7695 -26.4648 39.4531 -33.4473 C 34.2285 -35.4004 27.8809 -39.1113 23.9258 -43.457 C 22.2656 -40.8691 20.459 -38.0859 18.8477 -34.8145 C 15.332 -27.7344 11.6211 -24.7559 9.0332 -22.2168 C 7.66602 -20.8008 6.83594 -19.5801 6.83594 -17.7734 C 6.83594 -14.9902 9.57031 -13.5254 14.4043 -13.5254 L 18.6035 -13.5254 C 22.4121 -13.5254 25.1465 -12.9395 27.8809 -12.0605 Z M 117.334 -35.8398 C 115.332 -35.8398 113.672 -37.5 113.672 -39.5508 C 113.672 -41.5039 115.332 -43.1641 117.334 -43.1641 C 119.336 -43.1641 120.996 -41.5039 120.996 -39.5508 C 120.996 -37.5 119.336 -35.8398 117.334 -35.8398 Z M 53.2715 -3.07617 C 61.6211 -3.07617 67.7246 -7.61719 72.6562 -10.1074 C 66.5039 -15.4297 62.3535 -24.1699 61.8652 -31.9336 C 58.9355 -31.2012 56.0547 -30.8594 53.125 -30.8594 C 50.1953 -30.8105 47.2656 -31.2012 44.4336 -31.8848 C 43.8965 -24.3652 39.6973 -15.332 33.6426 -9.86328 C 38.4766 -7.95898 44.6777 -3.07617 53.2715 -3.07617 Z M 87.8418 3.36914 C 93.3594 3.36914 97.5586 1.07422 97.5586 -3.07617 C 97.5586 -6.39648 94.4336 -8.69141 91.5039 -8.93555 C 89.3066 -9.0332 87.5488 -9.13086 85.1562 -9.22852 C 80.2246 -8.88672 74.3164 -6.15234 70.2148 -3.51562 C 73.7305 0.634766 80.9082 3.36914 87.8418 3.36914 Z M 17.5293 3.36914 C 24.4629 3.36914 31.3965 0.634766 34.9609 -3.4668 C 30.5664 -6.15234 25.1465 -8.74023 20.166 -9.17969 C 18.0176 -8.64258 15.8203 -8.49609 13.5254 -8.05664 C 10.791 -7.51953 7.91016 -6.20117 7.91016 -3.125 C 7.91016 1.07422 12.0605 3.36914 17.5293 3.36914 Z"/>
  </g>
  <g id="Regular-S" transform="matrix(1 0 0 1 1379.85 696)">
   <path d="M 52.7832 -36.2793 C 63.0371 -36.3281 71.9238 -39.9902 78.6621 -47.9004 C 71.4355 -56.8848 64.0625 -60.5957 52.9297 -60.6445 C 41.6992 -60.6934 34.375 -56.9824 27.0508 -47.7539 C 34.0332 -39.7461 43.3105 -36.2793 52.7832 -36.2793 Z M 101.465 -17.4805 C 106.104 -19.2871 108.496 -22.9004 116.064 -22.9004 C 126.611 -22.9004 133.154 -26.416 133.154 -32.0801 C 133.154 -45.5566 126.123 -54.4434 115.479 -54.4434 C 106.445 -54.4434 100.586 -49.3164 98.4375 -40.1855 C 97.168 -34.8633 94.8242 -32.5195 92.9688 -30.957 C 94.8242 -28.2715 98.1934 -22.3145 101.465 -17.4805 Z M 77.002 -12.9395 C 80.2734 -13.5742 83.1055 -13.8184 87.4023 -13.8184 C 91.4551 -13.8184 95.3613 -14.5508 97.3145 -15.5762 C 93.1641 -21.0449 85.498 -37.6953 81.5918 -43.7012 C 77.6855 -39.4531 70.8496 -35.2051 66.6016 -33.4961 C 67.1875 -27.0996 71.3867 -18.5059 77.002 -12.9395 Z M 27.832 -12.5977 C 33.5938 -17.8711 38.623 -26.9531 39.209 -33.4473 C 34.1797 -35.3516 27.5879 -39.1602 23.877 -43.3105 C 22.2168 -40.7227 20.3613 -37.9395 18.7988 -34.6191 C 15.0879 -27.0996 11.2793 -24.2188 8.64258 -21.6309 C 7.56836 -20.5078 6.83594 -19.3359 6.83594 -17.7246 C 6.83594 -15.1367 9.47266 -13.8184 14.209 -13.8184 L 18.457 -13.8184 C 22.5098 -13.8184 25.1953 -13.3789 27.832 -12.5977 Z M 116.162 -35.9863 C 114.258 -35.9863 112.695 -37.5488 112.695 -39.4531 C 112.695 -41.3574 114.258 -42.8711 116.162 -42.8711 C 118.018 -42.8711 119.58 -41.3574 119.58 -39.4531 C 119.58 -37.5488 118.018 -35.9863 116.162 -35.9863 Z M 53.0273 -3.41797 C 61.2793 -3.41797 67.1875 -8.39844 72.0703 -10.8887 C 66.3574 -16.0645 62.3535 -24.7559 61.8652 -31.8848 C 58.8867 -31.1523 55.957 -30.7617 52.9297 -30.7617 C 49.9023 -30.7617 46.875 -31.1523 43.8965 -31.8848 C 43.4082 -25 39.2578 -15.918 33.4961 -10.5957 C 38.2812 -8.83789 44.3359 -3.41797 53.0273 -3.41797 Z M 17.4316 3.27148 C 24.3652 3.27148 31.3477 0.390625 34.668 -3.95508 C 30.6641 -6.5918 25.4883 -9.17969 20.7031 -9.22852 C 18.5547 -8.74023 16.2109 -8.64258 13.916 -8.20312 C 10.9375 -7.71484 7.8125 -6.39648 7.8125 -3.22266 C 7.8125 1.02539 12.1094 3.27148 17.4316 3.27148 Z M 86.2793 3.27148 C 91.6016 3.27148 95.8984 1.07422 95.8984 -3.17383 C 95.8984 -6.39648 92.7734 -9.08203 89.7949 -9.13086 C 87.4512 -9.13086 85.5957 -9.17969 83.0078 -9.17969 C 78.2227 -9.13086 73.0957 -6.5918 69.043 -3.90625 C 72.3633 0.439453 79.3457 3.27148 86.2793 3.27148 Z"/>
  </g>
  <g id="Light-S" transform="matrix(1 0 0 1 1082.7 696)">
   <path d="M 52.9785 -35.5957 C 63.7695 -35.6445 72.4609 -39.3555 79.4922 -46.6797 C 72.6074 -55.6152 65.0391 -60.2539 53.3691 -60.2539 C 41.7969 -60.3027 34.375 -56.5918 26.8066 -46.5332 C 33.8867 -39.209 42.8223 -35.5469 52.9785 -35.5957 Z M 100.928 -17.4805 C 105.762 -19.1895 109.912 -23.5352 118.018 -23.5352 C 127.588 -23.5352 134.033 -26.8555 134.033 -32.5195 C 134.033 -45.166 127.197 -54.0527 116.943 -54.0527 C 108.008 -54.0527 102.881 -48.3887 100.488 -40.0879 C 98.584 -34.1309 96.4844 -31.4453 93.1152 -29.6387 C 94.9707 -27.002 97.9492 -21.8262 100.928 -17.4805 Z M 77.6367 -12.793 C 81.2988 -13.8184 84.6191 -14.502 89.209 -14.502 C 92.5781 -14.502 95.8496 -14.9902 97.5098 -15.918 C 93.1641 -21.3867 85.7422 -37.1582 81.8359 -43.3594 C 77.832 -39.4043 71.7773 -35.6445 67.334 -33.8867 C 68.0176 -26.6113 71.5332 -19.0918 77.6367 -12.793 Z M 117.871 -36.1328 C 115.967 -36.1328 114.404 -37.6953 114.404 -39.5996 C 114.404 -41.5039 115.967 -43.0176 117.871 -43.0176 C 119.727 -43.0176 121.289 -41.5039 121.289 -39.5996 C 121.289 -37.6953 119.727 -36.1328 117.871 -36.1328 Z M 28.2715 -12.7441 C 33.9844 -18.4082 38.3301 -26.8066 39.1602 -33.7402 C 33.9355 -35.6445 28.0273 -39.1602 24.3164 -42.9688 C 22.4121 -40.0391 20.459 -36.7676 18.6523 -33.3496 C 15.1855 -26.6113 11.0352 -22.9492 8.39844 -20.6543 C 7.42188 -19.7754 6.83594 -18.75 6.83594 -17.4316 C 6.83594 -15.4297 8.98438 -14.3555 12.6953 -14.3555 L 17.5781 -14.3555 C 22.0703 -14.3555 25.2441 -13.6719 28.2715 -12.7441 Z M 52.6367 -4.24805 C 61.8164 -4.24805 68.2129 -8.59375 73.584 -11.1328 C 67.627 -17.041 64.0625 -24.8047 63.3789 -32.6172 C 60.0586 -31.6406 56.6406 -31.2012 53.0762 -31.2012 C 49.5605 -31.1523 46.1426 -31.6406 42.9688 -32.4707 C 42.2363 -25.293 38.6719 -17.2852 32.7148 -11.084 C 37.8418 -8.98438 43.7988 -4.24805 52.6367 -4.24805 Z M 17.6758 2.05078 C 24.0723 2.05078 30.7129 -0.878906 33.8379 -5.51758 C 30.3223 -7.86133 25.9277 -10.0098 21.6309 -10.3027 C 19.6777 -9.7168 17.5293 -9.61914 15.1855 -9.13086 C 11.6211 -8.39844 8.74023 -7.03125 8.74023 -3.90625 C 8.74023 -0.0488281 12.5488 2.05078 17.6758 2.05078 Z M 87.207 2.24609 C 92.334 2.24609 96.0938 0.0976562 96.0938 -3.71094 C 96.0938 -6.88477 93.2129 -9.22852 89.6484 -9.57031 C 87.2559 -9.76562 85.4492 -9.86328 83.2031 -10.1562 C 79.1016 -9.76562 74.707 -7.61719 70.9961 -5.37109 C 74.1211 -0.732422 80.7617 2.24609 87.207 2.24609 Z"/>
  </g>
  <g id="Thin-S" transform="matrix(1 0 0 1 785.402 696)">
   <path d="M 53.2715 -34.668 C 64.6484 -34.668 73.1934 -38.5254 80.6152 -45.1172 C 74.1699 -53.9551 66.3086 -59.7656 54.0039 -59.7656 C 41.9434 -59.8145 34.3262 -56.0059 26.5137 -44.9707 C 33.7402 -38.4766 42.1875 -34.668 53.2715 -34.668 Z M 100.244 -17.4316 C 105.273 -19.0918 111.719 -24.3164 120.557 -24.3164 C 128.857 -24.3164 135.205 -27.3438 135.205 -33.0566 C 135.205 -44.5801 128.613 -53.5645 118.896 -53.5645 C 110.059 -53.5645 105.859 -47.168 103.223 -39.9902 C 100.488 -33.1055 98.6328 -29.9805 93.3594 -27.8809 C 95.1172 -25.2441 97.6074 -21.1426 100.244 -17.4316 Z M 120.117 -36.2793 C 118.213 -36.2793 116.65 -37.8418 116.65 -39.7461 C 116.65 -41.6504 118.213 -43.2129 120.117 -43.2129 C 121.973 -43.2129 123.535 -41.6504 123.535 -39.7461 C 123.535 -37.8418 121.973 -36.2793 120.117 -36.2793 Z M 78.4668 -12.6465 C 82.7148 -14.1602 86.6699 -15.3809 91.5527 -15.3809 C 94.0918 -15.3809 96.4844 -15.5762 97.7539 -16.3574 C 93.1641 -21.875 86.084 -36.4258 82.1289 -42.9199 C 77.9785 -39.4043 72.9492 -36.2793 68.2617 -34.4727 C 69.1406 -25.9766 71.7773 -19.9219 78.4668 -12.6465 Z M 28.8086 -12.8906 C 34.5703 -19.1406 37.9395 -26.6113 39.1602 -34.1309 C 33.6426 -35.9863 28.5645 -39.209 24.8047 -42.5781 C 22.6562 -39.209 20.5566 -35.3027 18.5059 -31.6406 C 15.332 -25.9766 10.6934 -21.3379 8.05664 -19.4336 C 7.27539 -18.8477 6.83594 -18.0176 6.83594 -16.9922 C 6.83594 -15.8203 8.34961 -15.0391 10.7422 -15.0391 L 16.4062 -15.0391 C 21.5332 -15.0391 25.293 -14.1113 28.8086 -12.8906 Z M 52.1484 -5.37109 C 62.5488 -5.37109 69.5312 -8.83789 75.5859 -11.4746 C 69.2871 -18.3594 66.3574 -24.8047 65.3809 -33.4961 C 61.6211 -32.3242 57.6172 -31.7383 53.3203 -31.7383 C 49.0723 -31.7383 45.2637 -32.2754 41.7969 -33.252 C 40.6738 -25.7324 37.8906 -19.0918 31.6895 -11.7188 C 37.3047 -9.17969 43.0664 -5.37109 52.1484 -5.37109 Z M 17.9688 0.488281 C 23.6816 0.488281 29.9316 -2.63672 32.7637 -7.66602 C 29.834 -9.52148 26.416 -11.084 22.8516 -11.7188 C 21.1914 -11.0352 19.2871 -10.8887 16.8945 -10.3027 C 12.5 -9.375 9.96094 -7.86133 9.96094 -4.83398 C 9.96094 -1.51367 13.0859 0.488281 17.9688 0.488281 Z M 88.3789 0.878906 C 93.2129 0.878906 96.3379 -1.17188 96.3379 -4.44336 C 96.3379 -7.51953 93.8477 -9.375 89.4531 -10.2051 C 87.0117 -10.5957 85.2051 -10.791 83.4473 -11.377 C 80.2734 -10.5469 76.8555 -8.98438 73.584 -7.27539 C 76.416 -2.24609 82.666 0.878906 88.3789 0.878906 Z"/>
  </g>
  <g id="Ultralight-S" transform="matrix(1 0 0 1 488.398 696)">
   <path d="M 53.418 -34.1797 C 65.1367 -34.1797 73.584 -38.0859 81.1523 -44.2871 C 74.9512 -53.125 66.9922 -59.5215 54.3457 -59.5215 C 42.041 -59.5215 34.3262 -55.7129 26.3672 -44.1406 C 33.6426 -38.0859 41.8945 -34.1797 53.418 -34.1797 Z M 99.9023 -17.4316 C 105.029 -19.043 112.695 -24.7559 121.875 -24.7559 C 129.541 -24.7559 135.791 -27.6367 135.791 -33.3984 C 135.791 -44.2871 129.395 -53.2715 119.873 -53.2715 C 111.133 -53.2715 107.422 -46.5332 104.59 -39.9414 C 101.416 -32.5684 99.7559 -29.248 93.457 -26.9531 C 95.2148 -24.3652 97.4121 -20.8008 99.9023 -17.4316 Z M 121.289 -36.377 C 119.385 -36.377 117.822 -37.9395 117.822 -39.8438 C 117.822 -41.7969 119.385 -43.3105 121.289 -43.3105 C 123.145 -43.3105 124.707 -41.7969 124.707 -39.8438 C 124.707 -37.9395 123.145 -36.377 121.289 -36.377 Z M 78.9062 -12.5488 C 83.4473 -14.3555 87.6953 -15.8691 92.7734 -15.8691 C 94.8242 -15.8691 96.8262 -15.918 97.8516 -16.6016 C 93.1641 -22.1191 86.2793 -36.0352 82.2754 -42.6758 C 78.125 -39.3555 73.584 -36.6211 68.7988 -34.7656 C 69.6777 -25.6348 71.875 -20.3125 78.9062 -12.5488 Z M 29.1016 -12.9883 C 34.8633 -19.5312 37.7441 -26.5137 39.1113 -34.3262 C 33.4961 -36.1816 28.9062 -39.209 25.0977 -42.334 C 22.8027 -38.7695 20.6543 -34.5215 18.4082 -30.7617 C 15.4297 -25.6348 10.498 -20.5078 7.91016 -18.7988 C 7.17773 -18.3105 6.83594 -17.627 6.83594 -16.7969 C 6.83594 -16.0156 8.05664 -15.3809 9.76562 -15.3809 L 15.8203 -15.3809 C 21.1914 -15.3809 25.3418 -14.3066 29.1016 -12.9883 Z M 51.8555 -5.9082 C 62.9395 -5.9082 70.2637 -8.93555 76.6113 -11.6211 C 70.1172 -19.043 67.5293 -24.8535 66.4062 -33.9844 C 62.4023 -32.666 58.1055 -32.0312 53.418 -32.0312 C 48.8281 -32.0312 44.7754 -32.6172 41.1621 -33.6426 C 39.8926 -25.9277 37.5 -20.0684 31.1523 -12.0117 C 37.0117 -9.27734 42.7246 -5.9082 51.8555 -5.9082 Z M 18.1152 -0.292969 C 23.4863 -0.292969 29.4922 -3.51562 32.2266 -8.74023 C 29.5898 -10.3516 26.709 -11.6211 23.4863 -12.5 C 21.9238 -11.7188 20.2148 -11.5723 17.7734 -10.9375 C 12.9395 -9.86328 10.5957 -8.30078 10.5957 -5.32227 C 10.5957 -2.24609 13.4277 -0.292969 18.1152 -0.292969 Z M 88.9648 0.146484 C 93.7012 0.146484 96.4844 -1.80664 96.4844 -4.83398 C 96.4844 -7.8125 94.1895 -9.52148 89.3555 -10.5469 C 86.9141 -11.0352 85.1074 -11.2793 83.5938 -12.0117 C 80.8594 -10.9863 77.9785 -9.7168 74.9023 -8.25195 C 77.5879 -3.02734 83.5938 0.146484 88.9648 0.146484 Z"/>
  </g>
 </g>
</svg>
